<?xml version="1.0" standalone="no"?>
<!DOCTYPE svg PUBLIC "-//W3C//DTD SVG 20010904//EN"
 "http://www.w3.org/TR/2001/REC-SVG-20010904/DTD/svg10.dtd">
<svg version="1.0" xmlns="http://www.w3.org/2000/svg"
 width="651.000000pt" height="889.000000pt" viewBox="0 0 651.000000 889.000000"
 preserveAspectRatio="xMidYMid meet">

<g transform="translate(0.000000,889.000000) scale(0.100000,-0.100000)"
fill="#000000" stroke="none">
<path d="M2230 8795 c0 -19 19 -19 44 0 19 14 18 15 -12 15 -22 0 -32 -5 -32
-15z"/>
<path d="M2566 8754 l-40 -27 -37 21 c-20 12 -39 18 -43 15 -3 -4 -23 -8 -44
-10 -42 -4 -112 -32 -112 -44 0 -5 17 -16 38 -25 l37 -17 -61 -8 c-34 -4 -78
-15 -99 -23 -52 -22 -69 -21 -62 5 4 16 1 20 -15 17 -32 -5 -60 -50 -60 -94 0
-50 -18 -79 -68 -104 -55 -28 -72 -27 -60 5 13 34 -4 32 -29 -4 -21 -29 -81
-59 -81 -40 0 5 -11 15 -25 21 -21 10 -28 8 -45 -12 -11 -13 -20 -29 -20 -37
0 -7 -4 -13 -9 -13 -5 0 -17 -24 -26 -52 -10 -29 -21 -57 -26 -62 -5 -6 -9
-25 -9 -42 0 -18 -4 -35 -9 -39 -17 -10 -71 -134 -71 -163 0 -15 -7 -40 -15
-56 -35 -66 -12 -360 40 -513 8 -24 15 -50 15 -58 0 -8 -30 -32 -67 -53 -38
-22 -105 -61 -151 -87 -51 -30 -78 -51 -71 -56 8 -5 5 -10 -9 -18 -18 -10 -21
-9 -16 4 7 16 -122 -56 -183 -102 -40 -30 -37 -42 4 -18 l28 17 -25 -21 c-14
-12 -33 -19 -43 -17 -11 3 -37 -9 -61 -27 -23 -18 -54 -41 -68 -51 -26 -19
-26 -20 -8 -33 21 -15 23 -43 3 -62 -7 -6 -13 -9 -13 -6 0 3 -9 1 -20 -5 -16
-8 -24 -7 -36 4 -15 16 -11 36 7 36 6 0 7 -4 4 -10 -4 -6 7 -10 24 -10 24 0
31 4 31 20 0 25 -8 25 -27 3 -13 -17 -14 -16 -10 5 3 12 2 22 -1 22 -15 -1
-66 -50 -59 -56 9 -9 -11 -34 -27 -34 -6 0 -2 7 8 15 11 8 15 15 9 15 -15 0
-34 -25 -25 -35 4 -5 0 -6 -9 -2 -18 6 -125 -94 -113 -106 4 -4 1 -7 -7 -7
-41 0 -226 -241 -212 -277 5 -11 3 -14 -6 -8 -10 6 -11 3 -2 -13 6 -11 11 -27
11 -34 -1 -7 -7 -2 -14 11 l-13 24 -7 -28 c-4 -15 -5 -30 -1 -33 3 -3 5 3 5
13 0 10 3 16 6 12 10 -10 -5 -58 -16 -52 -6 4 -9 -15 -8 -47 l1 -53 8 45 c7
43 7 42 7 -20 0 -91 1 -102 10 -96 5 3 17 -13 26 -35 20 -44 101 -106 158
-119 30 -8 31 -9 11 -15 -25 -8 -31 -31 -10 -38 6 -2 0 -4 -16 -4 -23 0 -26 2
-15 15 7 8 9 13 3 11 -5 -3 -28 -13 -50 -22 -22 -10 -49 -22 -60 -27 -11 -5
-37 -16 -57 -24 -20 -8 -42 -24 -48 -36 -9 -17 -17 -20 -38 -15 -15 4 -24 3
-19 -1 4 -4 -12 -15 -36 -23 -81 -30 -246 -131 -213 -131 3 0 -9 -14 -26 -31
-24 -22 -29 -32 -19 -38 10 -6 9 -10 -4 -14 -11 -5 -14 -3 -9 5 5 8 2 9 -9 5
-25 -9 -21 -2 21 39 l37 37 -45 -35 -45 -36 -2 -213 c-1 -128 3 -221 9 -232 7
-14 7 -17 -1 -13 -19 12 -12 -10 9 -29 16 -15 22 -15 35 -5 10 8 15 9 15 1 0
-6 -4 -11 -10 -11 -5 0 -10 -4 -10 -10 0 -5 6 -7 13 -4 8 3 20 -3 28 -13 13
-16 12 -17 -3 -4 -10 7 -18 10 -18 5 0 -5 16 -21 34 -36 36 -29 52 -36 41 -18
-3 6 1 7 10 3 12 -4 13 -8 5 -13 -8 -5 10 -20 47 -43 99 -59 163 -84 213 -81
41 2 42 2 10 -4 l-35 -8 31 -6 c18 -4 49 -5 70 -3 31 4 34 3 14 -4 l-25 -8 25
-6 c70 -18 153 -27 234 -27 l90 0 -62 63 -62 63 18 34 c78 148 120 201 310
388 156 152 192 183 178 147 -8 -21 4 -18 39 10 17 13 84 64 150 113 67 49
129 101 138 116 10 14 16 26 14 26 -20 0 -139 -77 -193 -125 -71 -63 -104 -89
-104 -82 0 10 138 138 200 185 79 60 182 160 176 170 -8 14 19 39 88 80 37 23
70 42 72 42 3 0 22 12 44 26 22 15 43 24 46 22 6 -7 -98 -88 -141 -111 -38
-19 -75 -51 -75 -64 0 -6 -7 -16 -15 -23 -21 -17 -19 -36 9 -73 13 -18 51 -87
85 -154 54 -106 72 -131 132 -187 102 -94 266 -203 358 -236 43 -16 115 -36
161 -44 94 -18 143 -44 158 -84 36 -93 65 -200 92 -332 29 -145 37 -830 10
-922 -10 -35 -14 -38 -49 -38 -23 0 -57 10 -82 25 -56 31 -99 32 -136 1 -33
-27 -125 -63 -180 -70 -21 -3 -67 -12 -103 -20 -48 -11 -89 -13 -155 -8 l-90
7 2 33 c0 19 16 54 38 86 49 72 64 140 74 353 5 100 13 189 19 199 5 9 7 25 5
35 -4 13 0 19 11 19 10 0 14 5 11 10 -4 6 -10 8 -15 5 -4 -3 -11 6 -14 19 -9
35 -56 47 -176 44 l-102 -3 -35 -40 c-34 -40 -34 -41 -28 -115 6 -83 20 -267
31 -404 6 -71 5 -88 -6 -84 -7 2 -19 26 -27 54 -23 82 -58 146 -117 214 -31
36 -76 94 -100 130 -47 69 -67 90 -116 115 -17 9 -36 27 -42 41 -10 21 -8 28
17 54 32 34 25 37 -30 15 -20 -9 -45 -13 -56 -10 -23 8 -202 139 -281 208 -49
42 -62 49 -87 44 -55 -11 -226 -79 -247 -98 -11 -10 -26 -19 -33 -19 -21 0
-209 -110 -247 -145 -7 -5 -37 -30 -68 -54 -30 -24 -53 -48 -49 -54 3 -5 2 -7
-4 -4 -5 3 -30 -15 -54 -40 -24 -26 -35 -40 -24 -32 10 7 29 25 41 39 19 21
25 23 36 11 10 -11 10 -13 0 -7 -8 5 -26 -5 -48 -28 -19 -20 -42 -36 -51 -36
-8 0 -13 -6 -10 -13 3 -8 1 -20 -5 -28 -8 -11 -8 -9 -4 6 4 12 -9 4 -34 -23
l-39 -44 -1 -629 0 -629 42 -2 43 -1 -45 -7 c-45 -7 -45 -7 15 -8 33 0 85 4
115 9 30 5 73 11 95 14 22 4 58 11 80 16 22 6 66 15 98 21 49 9 55 13 45 26
-11 13 -10 14 9 3 23 -12 73 -6 73 9 0 5 8 6 18 3 10 -2 83 16 162 41 138 43
217 73 519 200 153 64 346 129 370 124 9 -2 -69 -45 -172 -96 -104 -51 -185
-96 -182 -102 3 -6 -1 -7 -9 -4 -16 6 -264 -118 -388 -194 -114 -70 -231 -150
-270 -184 -21 -18 -54 -44 -73 -58 -19 -14 -35 -31 -35 -37 0 -7 -6 -13 -14
-13 -8 0 -18 -5 -22 -12 -4 -7 -3 -8 4 -4 8 5 10 2 6 -9 -5 -12 -9 -13 -20 -4
-17 14 -18 5 -3 -24 l12 -22 -23 20 c-20 17 -22 17 -17 3 4 -11 2 -15 -6 -12
-7 2 -38 -22 -70 -54 -52 -54 -72 -83 -47 -67 5 3 7 0 4 -9 -3 -8 -11 -13 -18
-10 -8 3 -37 -26 -68 -68 -71 -93 -81 -114 -74 -146 6 -24 5 -25 -5 -8 -11 18
-12 18 -25 -5 -7 -13 -13 -30 -14 -37 0 -7 -9 -32 -19 -55 -31 -69 -49 -140
-40 -162 10 -27 11 -43 0 -26 -15 23 -21 -4 -22 -87 -1 -90 9 -154 22 -146 5
3 6 -2 3 -10 -8 -21 56 -117 104 -154 63 -50 177 -95 242 -95 43 0 50 -2 30
-8 -20 -7 -18 -8 13 -4 24 2 35 0 31 -6 -4 -7 20 -10 67 -10 41 0 100 -2 133
-5 41 -4 56 -3 52 5 -4 7 1 11 13 11 11 0 23 -5 27 -11 5 -8 77 -9 258 -3 357
11 350 12 354 -7 1 -8 -29 -58 -67 -110 -146 -197 -196 -304 -196 -419 0 -64
4 -81 27 -115 44 -68 125 -157 195 -217 61 -52 196 -140 233 -152 11 -4 24 13
44 57 27 56 124 221 179 304 12 18 28 35 35 38 7 2 45 -19 85 -48 93 -69 136
-94 360 -216 177 -96 279 -138 420 -170 70 -16 90 -14 227 23 69 19 140 37
158 41 17 4 32 11 32 15 0 5 7 7 15 4 22 -9 19 0 -13 33 -16 18 -42 33 -65 37
-21 4 -52 15 -70 26 -18 10 -48 22 -69 25 -20 4 -46 16 -57 26 -12 11 -26 17
-31 14 -6 -4 -10 8 -10 29 0 39 33 128 104 279 25 54 46 107 46 119 0 25 19
28 -315 -50 -334 -77 -512 -114 -533 -110 -12 3 -3 12 28 30 55 32 350 167
524 239 l129 54 -29 22 c-16 12 -89 70 -163 128 -74 59 -141 109 -148 112 -19
8 -16 41 8 74 l20 29 -28 0 c-15 0 -39 -9 -53 -20 -30 -23 -40 -25 -40 -7 0 8
17 27 38 44 24 19 46 51 61 88 l24 58 -26 22 c-14 13 -27 35 -29 50 -4 39 -28
52 -66 36 -36 -15 -57 -59 -48 -101 6 -33 -6 -73 -29 -96 -8 -9 -15 -25 -15
-36 0 -20 -2 -19 -25 6 -27 30 -30 44 -16 94 8 26 7 34 -5 39 -13 5 -12 9 6
28 23 24 40 75 40 118 0 40 -20 30 -37 -19 -14 -39 -38 -72 -47 -63 -7 6 91
289 110 317 12 18 21 22 37 17 82 -24 127 -14 195 44 32 27 32 28 8 24 -20 -4
-29 1 -46 28 -26 42 -22 104 9 148 25 35 22 38 -15 15 -56 -37 -70 -117 -29
-165 38 -46 11 -76 -61 -67 -27 3 -28 5 -25 51 1 29 -2 47 -8 47 -13 0 -11 14
25 150 56 213 75 273 108 343 28 60 34 87 39 167 4 61 17 135 37 205 63 222
125 505 152 690 29 203 6 732 -43 960 -10 49 -19 93 -19 97 0 4 17 8 38 8 20
0 99 9 175 19 212 29 276 71 322 211 13 38 27 56 72 90 30 23 59 38 64 33 15
-16 29 -139 30 -273 0 -141 11 -151 24 -24 6 55 10 64 16 45 24 -64 30 -164
20 -328 l-11 -168 27 -22 27 -22 -24 -153 c-12 -84 -25 -160 -27 -168 -2 -8
10 12 26 45 17 33 34 75 37 93 3 17 11 32 16 32 6 0 8 7 5 14 -4 10 -1 13 8
10 17 -7 23 -44 30 -179 7 -117 -1 -209 -16 -199 -5 3 -9 30 -9 60 l0 54 -48
0 c-37 0 -53 -5 -70 -22 -27 -30 -67 -112 -82 -168 -6 -25 -22 -56 -35 -70
-12 -14 -28 -36 -35 -48 -10 -21 -17 -23 -46 -17 -66 12 -122 -55 -111 -134 3
-26 0 -47 -9 -60 -19 -27 -87 -46 -114 -31 -26 14 -25 28 5 72 14 20 25 42 25
47 0 19 -26 12 -48 -12 -24 -26 -31 -102 -12 -138 22 -39 114 -18 167 39 36
38 44 65 30 101 -10 27 -9 34 11 53 16 17 25 19 33 11 9 -9 8 -18 -5 -37 -27
-41 -19 -45 42 -20 31 13 64 24 72 24 8 0 40 18 70 40 30 22 65 47 77 56 28
20 50 13 63 -21 6 -16 16 -25 27 -23 40 7 42 -160 3 -287 -12 -38 -35 -91 -51
-116 -22 -35 -31 -64 -36 -113 -3 -37 -10 -69 -15 -72 -5 -3 -33 17 -63 45
-30 28 -60 51 -68 51 -8 0 -22 9 -32 20 -26 29 -60 25 -85 -10 -12 -17 -19
-36 -17 -43 4 -8 6 -6 6 4 1 9 12 21 26 27 50 23 125 -30 110 -78 -8 -24 -71
-80 -91 -80 -16 0 -15 19 2 64 11 30 -15 16 -47 -24 -35 -43 -53 -50 -63 -24
-6 15 -9 14 -34 -2 -15 -10 -43 -26 -62 -36 -39 -21 -90 -52 -141 -85 -19 -13
-41 -23 -49 -23 -8 0 -35 -11 -59 -25 -24 -14 -61 -28 -82 -31 -37 -6 -68 -28
-56 -40 3 -4 27 1 53 10 26 9 69 16 96 16 27 0 76 11 115 26 38 14 89 32 115
39 26 7 79 31 117 53 38 22 87 46 108 54 21 7 57 32 80 56 65 66 103 54 103
-33 0 -27 -7 -79 -16 -115 -8 -36 -16 -105 -18 -155 -1 -49 -8 -100 -14 -112
-26 -48 -9 -45 36 6 60 67 76 62 50 -15 -11 -31 -21 -80 -23 -108 -2 -28 -7
-60 -11 -71 -6 -18 -5 -18 7 -4 8 9 26 19 41 23 49 11 64 38 58 105 -3 35 16
17 23 -22 9 -58 -4 -89 -62 -147 -43 -43 -56 -51 -59 -37 -2 9 -8 17 -13 17
-5 0 -9 11 -9 25 0 42 -28 30 -41 -17 -6 -24 -18 -63 -25 -87 -15 -46 -18 -81
-8 -81 5 0 204 165 249 207 29 27 72 53 87 53 28 0 159 70 212 113 30 25 95
65 143 88 48 24 135 73 193 110 58 36 134 81 169 99 93 46 141 80 141 99 0 9
-15 30 -32 46 -17 17 -56 64 -87 105 -31 41 -68 88 -83 105 -14 16 -44 55 -66
85 -43 58 -60 80 -136 169 -41 49 -54 71 -42 71 9 0 93 -41 106 -53 21 -17 60
-74 60 -87 0 -5 11 -20 25 -32 13 -11 22 -25 19 -30 -3 -4 3 -11 13 -15 22 -8
44 -29 37 -35 -7 -7 64 -68 80 -68 14 0 41 -52 41 -80 0 -8 9 -14 18 -13 11 0
16 -4 14 -12 -6 -15 67 -85 89 -85 8 0 17 -7 20 -15 4 -8 17 -15 30 -15 24 0
116 46 122 62 2 4 9 8 16 8 20 0 76 58 76 79 0 12 7 21 15 21 8 0 15 7 15 16
0 37 66 58 90 29 18 -21 40 -19 40 5 0 11 -4 20 -10 20 -22 0 -8 30 20 45 16
8 29 21 27 27 -1 9 15 11 54 10 51 -2 57 0 68 24 17 39 14 45 97 -186 37 -104
47 -197 19 -186 -8 3 -15 0 -15 -6 0 -7 -4 -7 -14 1 -11 9 -15 2 -20 -43 -4
-30 -4 -73 -1 -95 7 -49 -16 -151 -44 -190 -10 -14 -28 -43 -40 -65 l-22 -39
28 7 c15 3 84 15 153 27 69 12 128 24 132 28 14 13 16 227 2 316 -8 50 -12
109 -9 133 12 81 93 143 240 182 139 37 410 155 474 207 23 18 23 21 10 76 -7
32 -15 53 -19 48 -3 -6 -21 18 -39 54 -32 61 -92 135 -111 135 -5 0 -15 6 -23
14 -15 15 -98 46 -123 46 -42 0 -130 35 -162 65 l-36 33 40 20 c39 20 42 20
107 3 36 -9 70 -20 73 -24 4 -4 15 -7 25 -7 23 0 90 -45 81 -54 -3 -4 1 -4 11
0 10 3 17 1 17 -6 0 -6 24 -32 52 -58 94 -84 123 -117 133 -152 9 -30 15 -36
50 -41 98 -16 126 -17 138 -5 6 6 31 26 55 45 33 26 40 36 30 43 -10 8 -10 9
2 5 8 -2 27 5 43 15 l27 19 0 975 c0 921 -1 974 -17 974 -16 0 -16 -2 -3 -11
12 -8 10 -10 -9 -5 -13 3 -32 1 -41 -4 -10 -5 -31 -12 -48 -15 -16 -3 -41 -9
-54 -15 -24 -10 -23 -10 72 6 l25 4 -25 -11 c-14 -6 -52 -12 -85 -14 -33 -1
-63 -3 -66 -4 -7 -1 -22 -41 -20 -53 0 -4 -6 -5 -14 -2 -12 5 -12 8 2 22 19
19 0 30 -21 13 -7 -6 -21 -8 -31 -5 -13 6 -1 15 51 41 38 18 75 33 82 33 7 0
11 4 8 9 -3 5 6 9 21 9 15 0 29 5 31 11 2 6 11 11 19 11 8 0 37 12 64 27 34
18 46 29 37 35 -10 6 -8 8 5 8 16 0 17 33 17 549 l0 549 -26 6 c-15 4 -58 5
-98 2 l-71 -5 60 9 c98 16 95 18 -24 19 -100 1 -112 -1 -101 -14 14 -17 0 -21
-17 -4 -15 15 -132 23 -163 10 -20 -7 -14 -8 25 -4 28 2 61 0 75 -5 19 -8 11
-9 -35 -5 -40 3 -55 1 -46 -5 9 -7 -2 -8 -35 -4 -27 2 -52 9 -55 15 -4 6 -53
6 -130 2 -68 -5 -149 -9 -179 -10 -54 -1 -100 11 -100 26 0 13 82 129 91 129
5 0 9 9 9 20 0 25 29 84 37 76 3 -3 -2 -17 -11 -32 -10 -14 -16 -28 -14 -30 3
-2 15 15 28 39 13 23 26 44 29 47 4 3 15 19 24 35 l18 30 -25 -28 c-14 -15
-26 -24 -26 -20 0 15 47 73 53 67 3 -4 11 6 18 22 6 16 15 37 20 47 6 10 5 17
0 17 -5 0 -4 11 2 24 7 13 15 22 20 19 4 -2 6 25 5 60 -2 36 -7 63 -12 60 -4
-3 -5 4 -1 16 5 16 3 20 -9 15 -9 -3 -16 -2 -16 4 0 6 6 13 13 15 10 4 10 6 0
6 -7 1 -13 7 -13 14 -1 18 -87 113 -96 104 -4 -4 2 -14 15 -23 12 -9 33 -33
46 -55 28 -43 33 -65 9 -34 -12 15 -18 16 -21 7 -4 -10 -9 -8 -19 5 -7 10 -13
23 -13 28 0 6 6 2 13 -8 8 -10 16 -15 19 -10 3 4 -6 21 -20 37 -21 25 -28 28
-44 18 -12 -8 -19 -8 -19 -2 0 5 4 10 9 10 11 0 9 40 -3 59 -5 8 -18 10 -33 6
-19 -4 -23 -2 -21 11 4 21 -70 65 -96 57 -12 -3 -16 -1 -12 6 4 6 -20 18 -63
31 -57 18 -76 20 -107 11 -21 -6 -40 -8 -43 -6 -2 3 2 5 9 5 22 0 -22 36 -45
37 -11 0 -33 3 -50 5 -16 3 -23 3 -15 1 8 -3 19 -9 24 -14 6 -5 20 -9 32 -9
30 0 40 -17 14 -25 -11 -3 -20 -13 -20 -21 0 -11 -23 -14 -120 -14 -98 0 -120
3 -120 14 0 10 14 16 45 18 33 2 42 6 36 16 -5 9 -36 14 -93 15 -47 1 -81 5
-76 8 13 8 -55 19 -122 19 -51 -1 -53 -2 -31 -14 36 -20 0 -29 -50 -12 -26 9
-50 11 -67 6 -28 -9 -23 -11 42 -16 49 -4 61 -14 15 -12 -19 0 -45 -2 -58 -7
-16 -5 -21 -4 -17 4 7 11 1 12 -77 15 -16 1 -31 -2 -33 -6 -3 -4 10 -8 28 -8
18 0 40 -5 48 -10 10 -7 1 -8 -30 -4 -25 4 -50 11 -57 16 -7 5 -32 3 -65 -7
-53 -15 -53 -15 -9 -10 45 6 111 -10 111 -26 0 -13 -18 -11 -22 2 -4 12 -62
15 -130 5 -30 -4 -48 -2 -48 4 0 5 -8 10 -17 10 -15 0 -13 -4 7 -20 16 -13 34
-18 50 -15 23 4 24 4 4 -6 -17 -9 -30 -6 -63 10 -22 12 -41 17 -41 11 0 -6
-12 -8 -27 -5 l-28 6 25 -13 c18 -9 26 -23 29 -45 2 -32 1 -33 -32 -33 -20 0
-44 -3 -54 -7 -15 -6 -16 -4 -6 8 11 14 2 15 -80 14 -99 -3 -96 3 22 32 36 9
70 19 74 23 7 6 -42 -5 -218 -49 -30 -7 -30 -7 13 -14 23 -4 55 -5 70 -1 21 4
23 3 12 -5 -19 -13 -133 -11 -142 3 -5 8 -11 7 -20 -2 -6 -6 -23 -12 -37 -12
-15 -1 -39 -7 -56 -15 -36 -16 -20 -19 23 -4 17 6 37 9 44 6 7 -2 -8 -10 -35
-17 -55 -14 -73 -32 -25 -24 31 5 31 4 -7 -10 -43 -17 -72 -20 -40 -5 14 7 3
8 -37 5 -32 -3 -67 -11 -79 -20 -14 -10 -28 -12 -38 -6 -11 5 -41 0 -86 -16
-77 -26 -68 -33 11 -9 27 8 56 15 64 14 8 0 -10 -8 -40 -18 -41 -13 -50 -19
-35 -23 17 -5 18 -6 2 -7 -10 0 -15 -5 -12 -11 3 -5 1 -10 -5 -10 -7 0 -10 7
-6 15 4 11 -2 15 -22 15 -16 0 -32 -4 -37 -9 -16 -15 -59 -25 -51 -12 4 6 2
11 -3 11 -6 0 -11 -4 -11 -9 0 -5 -10 -7 -21 -4 -20 6 -21 11 -15 66 6 60 26
97 52 97 7 0 11 6 8 13 -7 19 40 41 74 34 19 -4 54 3 98 19 49 18 58 23 31 19
-21 -3 -46 -8 -55 -11 -9 -2 -1 3 17 12 19 8 48 14 63 12 15 -3 58 6 95 19 38
13 55 21 38 18 -78 -14 -95 -18 -95 -26 0 -5 -4 -9 -10 -9 -27 0 -5 21 33 31
34 9 38 13 22 19 -16 5 -13 8 14 13 44 9 63 7 31 -3 -23 -7 -23 -8 10 -10 53
-3 74 0 90 16 13 13 11 13 -18 3 -33 -11 -59 -5 -28 7 15 6 15 7 -1 20 -16 12
-13 12 17 4 19 -6 44 -9 55 -9 17 1 17 2 3 6 -10 2 -18 10 -18 18 0 7 -18 15
-45 19 -41 7 -45 10 -45 36 0 22 4 28 15 24 8 -4 15 -1 15 4 0 6 8 13 18 16 9
2 -1 2 -23 -1 -22 -3 -46 -10 -53 -16 -9 -7 -16 -5 -25 8 -13 16 -16 16 -61
-5 -26 -11 -55 -19 -64 -17 -12 3 -11 5 5 6 12 0 24 5 27 9 5 9 -119 -10 -186
-28 -22 -6 -46 -9 -53 -6 -11 4 -25 53 -30 106 0 9 -4 21 -9 28 -4 7 -6 27 -5
45 2 35 -43 147 -60 147 -6 0 -11 6 -11 14 0 18 -48 76 -62 76 -6 0 -8 -13 -5
-32 6 -33 5 -32 -64 34 -39 37 -83 73 -99 80 -16 7 -27 15 -24 19 2 4 -3 12
-11 19 -8 7 -15 18 -15 25 0 27 -35 38 -158 50 -82 8 -119 15 -104 20 24 8 30
25 10 25 -9 0 -8 3 2 10 23 15 -48 39 -132 46 -68 5 -76 4 -112 -22z m122
-106 c-3 -7 -22 -19 -44 -26 -21 -8 -61 -23 -87 -34 -51 -20 -61 -20 -52 3 15
37 63 56 173 68 8 0 12 -5 10 -11z m436 -476 c68 -53 143 -191 176 -323 12
-46 34 -122 50 -169 16 -47 34 -118 41 -157 7 -40 16 -73 20 -73 5 0 9 7 9 16
0 11 8 14 27 12 54 -6 64 -58 66 -350 1 -169 -2 -220 -13 -233 -7 -9 -19 -14
-27 -11 -8 3 -13 -2 -13 -14 0 -25 1 -25 47 0 21 11 32 20 25 20 -19 0 -14 20
6 21 14 0 14 2 -3 9 -29 13 2 12 48 -1 44 -12 63 -5 26 10 -21 9 -22 10 -4 11
17 0 18 2 5 11 -10 7 -11 9 -2 7 8 -2 13 -8 12 -13 -3 -15 37 -24 67 -15 15 5
53 18 83 30 43 15 47 19 20 15 -28 -5 -32 -4 -17 5 9 6 36 12 58 13 40 1 40 2
20 18 -20 16 -20 17 19 15 22 -1 42 -5 46 -8 3 -4 27 1 52 10 26 8 41 17 34
20 -16 5 -5 22 14 22 8 0 13 -4 10 -9 -4 -5 3 -7 14 -4 26 7 38 25 14 22 -11
-2 -32 5 -49 15 -16 9 -21 14 -10 11 11 -4 32 -8 48 -11 15 -2 41 -6 57 -9 19
-3 29 -1 25 5 -3 6 2 11 12 12 42 3 87 17 80 25 -3 2 -16 -1 -29 -7 l-23 -12
23 22 c17 16 26 19 36 11 10 -8 29 -5 74 12 52 19 59 25 51 40 -8 13 -6 17 6
17 8 0 15 5 15 10 0 6 11 8 25 4 15 -4 25 -2 25 5 0 6 -5 11 -12 11 -6 0 -9 2
-6 5 3 3 15 2 27 -3 20 -7 21 -9 7 -21 -9 -8 -27 -13 -41 -13 -14 0 -28 -4
-31 -9 -7 -12 11 -11 57 3 22 6 39 15 39 20 0 4 8 8 18 8 21 0 74 34 66 43 -4
3 5 9 20 13 14 3 24 10 21 15 -7 11 33 32 48 25 7 -2 4 -5 -5 -5 -10 -1 -18
-5 -18 -10 0 -26 70 -11 158 34 34 17 38 34 5 20 -10 -5 -24 -7 -32 -6 -7 1
-10 -2 -6 -8 8 -13 -13 -13 -40 0 -19 9 -18 9 2 5 13 -2 26 0 29 5 3 5 14 9
24 9 10 0 20 6 22 12 3 9 11 9 29 -3 15 -10 31 -13 44 -8 11 4 30 8 43 8 28 1
30 -25 2 -34 -28 -9 -25 -22 8 -33 18 -7 21 -11 9 -11 -10 -1 -27 4 -38 9 -14
8 -24 8 -37 0 -14 -10 -15 -11 0 -6 9 2 24 -2 35 -10 17 -13 16 -14 -12 -8
-16 3 -35 7 -41 9 -5 2 -28 -5 -50 -16 -27 -13 -33 -18 -18 -19 11 0 26 6 32
12 9 9 15 10 20 2 4 -6 14 -14 22 -18 8 -3 4 -4 -10 -1 -15 2 -46 -6 -75 -20
-29 -14 -42 -25 -31 -25 11 0 17 -2 14 -5 -3 -3 -25 -1 -48 4 -34 7 -50 6 -72
-5 -16 -8 -26 -20 -22 -25 4 -8 -2 -9 -17 -4 -15 4 -19 3 -12 -2 17 -12 -11
-53 -34 -53 -14 0 -14 2 3 14 15 12 17 17 7 27 -10 10 -13 10 -13 1 0 -7 -7
-12 -16 -12 -8 0 -13 -4 -10 -9 3 -4 -7 -6 -22 -3 -26 4 -26 4 -7 -12 11 -8
26 -16 33 -16 18 0 4 -20 -14 -20 -8 0 -12 5 -9 10 3 6 0 10 -7 10 -7 0 -24 3
-38 5 -22 5 -23 4 -5 -5 16 -9 14 -9 -14 -5 l-33 5 23 -21 c13 -11 18 -17 10
-13 -8 4 -30 8 -50 10 l-36 3 35 -14 c19 -7 27 -14 18 -14 -9 -1 -28 3 -42 9
-21 8 -29 6 -45 -12 -12 -12 -26 -18 -36 -15 -12 5 -14 1 -11 -17 4 -23 3 -23
-24 -10 -25 13 -33 12 -86 -12 -33 -14 -66 -29 -74 -33 -9 -5 -30 -12 -47 -15
-18 -4 -68 -23 -112 -41 -44 -19 -99 -39 -121 -45 -28 -8 -40 -16 -37 -25 7
-17 -45 -39 -72 -30 -21 6 -117 -19 -135 -36 -13 -12 0 -12 42 0 18 6 30 6 27
1 -3 -5 -20 -12 -38 -15 -33 -7 -71 -45 -45 -45 9 0 10 -2 2 -8 -7 -4 -14 -16
-16 -27 -3 -16 -5 -15 -10 8 -3 18 0 33 9 43 11 11 12 14 1 14 -10 0 -9 3 2
10 20 13 9 19 -17 9 -17 -6 -23 -19 -28 -56 -10 -79 -44 -183 -59 -183 -17 0
-64 -74 -102 -159 -22 -51 -35 -66 -62 -78 -43 -18 -52 -10 -24 20 45 48 11
100 -35 54 -17 -17 -26 -39 -30 -79 -5 -53 -8 -58 -70 -113 -100 -90 -154
-101 -308 -65 -47 11 -111 20 -143 20 -31 0 -74 6 -97 14 -22 8 -64 19 -93 26
-44 10 -62 21 -100 63 -26 28 -63 65 -81 81 -154 137 -256 276 -307 417 -16
46 -49 196 -58 264 -3 22 -15 109 -27 194 -23 170 -21 195 28 279 23 39 25 50
19 110 -19 195 -19 228 -1 283 21 65 47 96 89 104 39 9 213 66 286 95 30 12
95 26 145 32 50 5 134 24 190 43 115 39 284 65 400 62 67 -2 85 -6 109 -25z
m556 -103 c36 -6 75 -10 88 -10 12 0 22 -4 22 -9 0 -6 -15 -11 -32 -11 -18 -1
-25 -3 -15 -6 20 -5 23 -19 5 -25 -17 -6 -78 -2 -85 6 -4 3 7 6 23 6 l29 1
-30 14 -30 14 30 -5 c29 -4 29 -4 5 6 -18 8 -37 8 -67 1 -23 -6 -50 -11 -60
-10 -16 0 -16 1 2 9 11 5 34 9 50 10 l30 2 -30 8 c-45 12 -8 11 65 -1z m77 5
c-3 -3 -12 -4 -19 -1 -8 3 -5 6 6 6 11 1 17 -2 13 -5z m-208 -17 c-28 -9 -36
-17 -34 -34 1 -13 -3 -19 -11 -16 -6 2 -9 13 -7 24 6 22 35 38 68 38 11 0 4
-6 -16 -12z m101 -27 c0 -5 -4 -10 -10 -10 -5 0 -10 5 -10 10 0 6 5 10 10 10
6 0 10 -4 10 -10z m117 -44 c-8 -10 -14 -11 -19 -3 -4 6 -2 15 5 19 17 11 28
-1 14 -16z m-57 -4 c0 -4 -6 -14 -12 -21 -11 -11 -7 -12 22 -6 33 7 34 6 15
-9 -38 -29 -63 -13 -49 32 4 13 24 17 24 4z m1188 -9 c-10 -2 -28 -2 -40 0
-13 2 -5 4 17 4 22 1 32 -1 23 -4z m-1421 -35 c-3 -7 -5 -2 -5 12 0 14 2 19 5
13 2 -7 2 -19 0 -25z m40 -5 c-3 -10 -5 -4 -5 12 0 17 2 24 5 18 2 -7 2 -21 0
-30z m1391 20 c-10 -2 -28 -2 -40 0 -13 2 -5 4 17 4 22 1 32 -1 23 -4z m-1356
-25 c-7 -7 -12 -8 -12 -2 0 14 12 26 19 19 2 -3 -1 -11 -7 -17z m1541 15 c-7
-2 -19 -2 -25 0 -7 3 -2 5 12 5 14 0 19 -2 13 -5z m-1493 -13 c0 -5 -7 -7 -15
-4 -8 4 -15 8 -15 10 0 2 7 4 15 4 8 0 15 -4 15 -10z m1870 -7 c32 -9 58 -21
57 -27 -1 -6 9 -11 23 -11 23 0 100 -31 100 -40 0 -2 -15 -2 -32 1 -18 3 -44
7 -57 8 -14 2 -27 8 -29 14 -2 7 -7 10 -12 7 -4 -3 -19 0 -32 5 -21 9 -20 10
7 5 52 -11 11 18 -53 37 -31 9 -51 17 -44 17 7 1 39 -6 72 -16z m-1795 -3 c13
-6 15 -9 5 -9 -8 0 -22 4 -30 9 -18 12 -2 12 25 0z m-35 -15 c0 -1 -9 -5 -19
-8 -13 -3 -18 -1 -14 9 4 10 33 10 33 -1z m-111 -40 c0 -5 -4 -3 -9 5 -6 10
-10 11 -10 3 0 -7 -8 -13 -18 -13 -10 0 -23 -5 -29 -11 -8 -8 -13 -8 -17 0 -4
6 0 11 8 11 9 0 16 5 16 10 0 6 9 10 20 10 12 0 20 7 21 18 0 14 2 14 9 -3 5
-11 9 -24 9 -30z m38 39 c-3 -3 -12 -4 -19 -1 -8 3 -5 6 6 6 11 1 17 -2 13 -5z
m1856 -1 c-13 -2 -33 -2 -45 0 -13 2 -3 4 22 4 25 0 35 -2 23 -4z m-899 -11
c2 -4 -11 -8 -29 -8 -21 0 -30 3 -22 8 16 10 44 10 51 0z m-174 -12 c8 -5 11
-10 5 -10 -5 0 -17 5 -25 10 -8 5 -10 10 -5 10 6 0 17 -5 25 -10z m1095 0 c3
-6 -1 -7 -9 -4 -18 7 -21 14 -7 14 6 0 13 -4 16 -10z m-1879 -27 c-10 -10 -19
5 -10 18 6 11 8 11 12 0 2 -7 1 -15 -2 -18z m1849 17 c3 -5 -3 -10 -14 -10
-12 0 -21 5 -21 10 0 6 6 10 14 10 8 0 18 -4 21 -10z m-936 -4 c-2 -2 -17 -6
-34 -10 -22 -5 -26 -4 -15 4 14 9 59 15 49 6z m1221 -50 c0 -3 -4 -8 -10 -11
-5 -3 -10 -1 -10 4 0 6 5 11 10 11 6 0 10 -2 10 -4z m-1501 -22 c10 -9 -35 -3
-49 6 -11 8 -7 9 15 4 17 -4 32 -8 34 -10z m-152 -10 c-3 -3 -12 -4 -19 -1 -8
3 -5 6 6 6 11 1 17 -2 13 -5z m242 -10 c9 -8 -45 -2 -64 6 -14 7 -8 8 20 3 22
-3 42 -7 44 -9z m1409 4 c-2 -5 -8 -9 -13 -9 -5 0 -11 4 -13 9 -1 5 4 9 13 9
9 0 14 -4 13 -9z m-1790 -65 c-10 -2 -26 -2 -35 0 -10 3 -2 5 17 5 19 0 27 -2
18 -5z m-75 -10 c-7 -2 -19 -2 -25 0 -7 3 -2 5 12 5 14 0 19 -2 13 -5z m-153
-33 c0 -5 -9 -10 -21 -10 -11 0 -17 5 -14 10 3 6 13 10 21 10 8 0 14 -4 14
-10z m2150 -51 c0 -6 -4 -7 -10 -4 -5 3 -10 11 -10 16 0 6 5 7 10 4 6 -3 10
-11 10 -16z m-2303 5 c-3 -3 -12 -4 -19 -1 -8 3 -5 6 6 6 11 1 17 -2 13 -5z
m60 -10 c-3 -3 -12 -4 -19 -1 -8 3 -5 6 6 6 11 1 17 -2 13 -5z m-67 -8 c0 -2
-8 -10 -17 -17 -16 -13 -17 -12 -4 4 13 16 21 21 21 13z m-20 -106 c0 -5 -4
-10 -10 -10 -5 0 -10 5 -10 10 0 6 5 10 10 10 6 0 10 -4 10 -10z m17 -47 c-3
-10 -5 -4 -5 12 0 17 2 24 5 18 2 -7 2 -21 0 -30z m1408 -13 c-19 -8 -19 -9 1
-9 25 -1 41 -31 23 -42 -7 -4 -9 -14 -6 -23 4 -10 1 -16 -9 -16 -9 0 -14 6
-11 13 10 27 -7 37 -43 27 -49 -14 -58 -12 -31 6 16 12 34 15 63 10 26 -4 37
-3 33 4 -3 5 -15 10 -25 10 -23 0 -35 16 -18 23 23 9 44 6 23 -3z m846 -37
c-8 -15 -9 -12 -6 12 5 40 7 43 12 23 2 -10 0 -25 -6 -35z m49 33 c0 -8 -7
-16 -15 -20 -17 -6 -18 -4 -9 18 8 20 24 21 24 2z m-1060 -21 c-7 -9 -15 -13
-17 -11 -7 7 7 26 19 26 6 0 6 -6 -2 -15z m1056 -21 c-3 -9 -6 -18 -6 -20 0
-3 -5 -2 -10 1 -6 3 -13 -1 -16 -9 -8 -20 -21 -21 -21 -1 0 8 3 13 5 10 3 -3
11 4 19 15 17 24 38 27 29 4z m-4200 -88 c-2 -6 -5 -3 -5 8 -1 12 -6 16 -16
12 -18 -7 -19 0 -2 18 10 12 13 10 20 -7 4 -11 6 -25 3 -31z m3304 24 c0 -5
-5 -10 -11 -10 -5 0 -7 5 -4 10 3 6 8 10 11 10 2 0 4 -4 4 -10z m-1340 -14 c0
-8 -4 -18 -10 -21 -5 -3 -10 3 -10 14 0 12 5 21 10 21 6 0 10 -6 10 -14z
m-2089 -48 c-53 -31 -65 -44 -31 -33 11 4 20 2 20 -4 0 -13 -27 -13 -55 -1
-18 8 -18 9 -2 9 10 1 15 6 12 11 -3 6 0 10 7 10 8 0 29 11 48 24 19 13 39 21
44 19 4 -3 -15 -19 -43 -35z m4233 17 c11 -8 18 -17 15 -19 -2 -3 -15 4 -29
14 -14 11 -20 20 -15 19 6 0 19 -6 29 -14z m-20 -30 c-4 -8 -11 -12 -16 -9 -6
4 -5 10 3 15 19 12 19 11 13 -6z m-3966 -52 c61 -60 86 -118 60 -135 -10 -6
-10 -8 0 -8 6 0 12 -4 12 -10 0 -5 -6 -7 -14 -4 -33 13 -60 -100 -36 -146 14
-26 52 -47 44 -25 -7 16 13 103 26 118 8 9 30 -99 30 -143 0 -19 -3 -21 -12
-12 -25 25 -30 11 -5 -16 27 -28 64 -143 52 -162 -10 -17 -88 -11 -121 9 -31
19 -67 84 -115 209 -16 42 -28 61 -37 57 -8 -3 -21 -5 -29 -5 -12 0 -10 -5 8
-21 15 -13 18 -20 9 -19 -28 4 -40 0 -40 -15 0 -15 -46 -32 -57 -21 -4 3 4 6
16 6 18 0 22 4 18 19 -3 13 0 18 8 15 7 -3 16 -1 20 5 8 14 -25 14 -45 1 -8
-5 -10 -10 -5 -10 12 -1 -25 -30 -37 -30 -4 0 -8 5 -8 10 0 6 7 10 17 10 9 0
14 3 10 6 -3 3 -36 -4 -72 -16 -36 -12 -69 -19 -72 -16 -4 3 1 6 11 6 9 0 15
4 11 9 -3 6 3 14 12 20 10 6 12 11 6 11 -7 0 -13 5 -13 11 0 6 7 9 15 5 19 -7
47 3 40 15 -3 4 4 13 15 19 13 7 20 7 20 0 0 -5 -5 -10 -12 -10 -6 0 -9 -2 -6
-5 7 -8 68 28 68 40 0 5 -5 4 -12 -3 -7 -7 -19 -12 -27 -12 -8 0 -11 3 -8 7 4
3 2 12 -4 20 -9 9 -8 13 0 13 6 0 11 -4 11 -10 0 -5 7 -10 17 -10 14 0 14 2
-2 20 -10 11 -15 20 -11 20 4 0 17 -11 30 -25 23 -25 46 -24 25 2 -9 10 -8 13
4 13 9 0 18 -4 22 -10 3 -5 13 -6 21 -3 13 5 15 16 10 65 -8 69 7 78 20 11 5
-25 15 -49 23 -51 9 -3 12 0 8 10 -3 10 6 27 24 44 54 51 28 114 -42 100 -34
-7 -42 10 -20 44 34 55 47 53 119 -17z m2762 47 c0 -5 -4 -10 -10 -10 -5 0
-10 5 -10 10 0 6 5 10 10 10 6 0 10 -4 10 -10z m-3097 -37 c-7 -2 -21 -2 -30
0 -10 3 -4 5 12 5 17 0 24 -2 18 -5z m92 -3 c-3 -5 -12 -10 -18 -10 -7 0 -6 4
3 10 19 12 23 12 15 0z m-55 -20 c0 -12 7 -20 18 -21 9 0 12 -3 5 -5 -6 -3
-22 2 -35 10 -16 10 -28 12 -38 6 -23 -14 -33 -12 -18 4 13 12 33 21 61 25 4
0 7 -8 7 -19z m2157 -2 c-3 -8 -6 -5 -6 6 -1 11 2 17 5 13 3 -3 4 -12 1 -19z
m1042 18 c-2 -2 -15 -9 -29 -15 -24 -11 -24 -11 -6 3 16 13 49 24 35 12z
m-392 -31 c0 -8 -6 -15 -13 -15 -8 0 -11 6 -8 15 4 8 9 15 13 15 4 0 8 -7 8
-15z m83 5 c0 -5 -2 -10 -4 -10 -3 0 -8 5 -11 10 -3 6 -1 10 4 10 6 0 11 -4
11 -10z m343 3 c-7 -2 -19 -2 -25 0 -7 3 -2 5 12 5 14 0 19 -2 13 -5z m-1099
-18 c-4 -9 1 -18 11 -21 10 -4 14 -12 9 -23 -3 -9 -10 -29 -14 -46 l-8 -30 -1
36 c-1 20 -4 51 -7 68 -4 20 -2 31 4 31 6 0 9 -7 6 -15z m720 6 c3 -5 -3 -11
-13 -14 -14 -3 -18 -1 -14 9 6 16 19 18 27 5z m1354 -23 c-50 -89 -78 -113
-78 -65 0 18 2 19 11 7 9 -12 11 -13 16 -1 3 7 14 22 25 33 14 14 15 18 4 16
-8 -2 -15 2 -15 7 0 6 6 9 14 7 7 -1 16 5 19 14 4 9 9 14 12 11 3 -3 0 -16 -8
-29z m-4382 -9 c-21 -11 -40 -18 -43 -15 -6 6 48 35 67 36 8 0 -3 -9 -24 -21z
m3399 11 c-16 -4 -24 -8 -16 -9 8 0 12 -4 8 -7 -9 -9 -28 6 -22 17 4 5 18 8
33 8 l27 -1 -30 -8z m-3302 -15 c-3 -9 -8 -14 -10 -11 -3 3 -2 9 2 15 9 16 15
13 8 -4z m2787 5 c0 -5 -7 -10 -16 -10 -8 0 -12 5 -9 10 3 6 10 10 16 10 5 0
9 -4 9 -10z m-2623 -22 c-3 -8 -6 -5 -6 6 -1 11 2 17 5 13 3 -3 4 -12 1 -19z
m3036 -8 c-5 -19 -23 -29 -23 -12 0 7 20 32 26 32 1 0 0 -9 -3 -20z m-3366
-14 c-8 -8 -17 -12 -21 -9 -3 3 2 12 12 19 22 16 29 9 9 -10z m2750 18 c-3 -3
-12 -4 -19 -1 -8 3 -5 6 6 6 11 1 17 -2 13 -5z m163 -4 c0 -5 -10 -10 -22 -9
-22 0 -22 1 -3 9 11 5 21 9 23 9 1 1 2 -3 2 -9z m-147 -24 c15 -12 15 -14 2
-19 -8 -4 -14 -1 -12 6 1 7 -6 11 -15 11 -10 -1 -18 2 -18 7 0 13 22 10 43 -5z
m-2384 -33 c0 -31 -2 -34 -9 -18 -12 28 -12 55 0 55 6 0 10 -17 9 -37z m2886
27 c13 -5 14 -9 5 -9 -8 0 -24 4 -35 9 -13 5 -14 9 -5 9 8 0 24 -4 35 -9z
m1087 -39 l-7 -21 -13 21 c-8 12 -9 18 -3 14 7 -4 11 3 11 17 1 20 2 21 10 6
6 -9 7 -26 2 -37z m-4344 27 c-2 -6 -14 -12 -26 -13 -11 -1 -19 2 -16 7 4 5
12 7 20 4 8 -3 14 -1 14 4 0 6 3 10 6 10 3 0 4 -5 2 -12z m339 -40 c-3 -7 -5
-2 -5 12 0 14 2 19 5 13 2 -7 2 -19 0 -25z m2763 16 c0 -8 -4 -12 -10 -9 -5 3
-10 10 -10 16 0 5 5 9 10 9 6 0 10 -7 10 -16z m-350 -4 c-8 -5 -24 -9 -35 -9
-16 1 -16 2 5 9 35 11 48 11 30 0z m1620 -6 c0 -8 -4 -12 -10 -9 -5 3 -10 10
-10 16 0 5 5 9 10 9 6 0 10 -7 10 -16z m-4472 -10 c7 4 9 -1 7 -14 -3 -15 3
-24 18 -30 12 -5 15 -9 7 -9 -8 0 -24 6 -34 14 -14 11 -16 15 -5 15 10 1 9 3
-3 11 -11 6 -24 7 -34 1 -15 -8 -15 -10 1 -16 14 -5 15 -9 5 -21 -7 -8 -17
-15 -23 -15 -6 0 -2 7 9 15 13 10 15 14 5 15 -8 0 -29 -12 -48 -26 -19 -14
-37 -23 -40 -20 -7 6 2 14 72 65 25 18 42 25 46 19 4 -6 12 -8 17 -4z m2709
10 c-3 -3 -12 -4 -19 -1 -8 3 -5 6 6 6 11 1 17 -2 13 -5z m-57 -29 c-7 -8 -22
-15 -34 -14 l-21 0 21 9 c12 5 25 14 29 20 4 6 9 9 12 6 3 -3 0 -12 -7 -21z
m-2290 11 c0 -3 -4 -8 -10 -11 -5 -3 -10 -1 -10 4 0 6 5 11 10 11 6 0 10 -2
10 -4z m2340 -6 c0 -5 -7 -10 -16 -10 -8 0 -12 5 -9 10 3 6 10 10 16 10 5 0 9
-4 9 -10z m401 -10 c13 -10 18 -19 12 -20 -7 0 -13 4 -13 8 0 5 -10 14 -22 20
-13 6 -18 11 -12 11 7 1 22 -8 35 -19z m-14 -14 c1 -1 -13 -2 -32 -2 -35 0
-47 10 -22 19 9 3 39 -6 54 -17z m2110 18 c-3 -3 -12 -4 -19 -1 -8 3 -5 6 6 6
11 1 17 -2 13 -5z m-682 -13 c3 -5 0 -13 -6 -17 -7 -4 -9 -3 -5 4 3 5 0 13 -6
15 -9 4 -10 6 -1 6 6 1 14 -3 18 -8z m85 -7 c0 -2 -9 -4 -20 -4 -11 0 -20 4
-20 9 0 5 9 7 20 4 11 -3 20 -7 20 -9z m-1605 -11 c-11 -3 -22 -9 -25 -13 -3
-5 -23 -11 -45 -14 l-40 -6 35 11 c19 6 39 15 45 20 5 5 18 8 30 8 20 -1 20
-1 0 -6z m-404 -14 c44 15 59 14 28 -3 -30 -15 -87 -31 -77 -20 4 4 2 14 -5
23 -11 14 -10 14 5 2 14 -10 25 -11 49 -2z m478 7 c-13 -12 -110 -56 -105 -48
3 6 0 13 -6 15 -7 3 -4 6 8 6 11 1 24 5 30 10 8 8 27 14 68 20 5 0 7 -1 5 -3z
m-2796 -38 c-8 -14 -19 -8 -20 12 -1 16 1 17 12 7 7 -6 11 -15 8 -19z m-339 9
c17 -12 17 -14 2 -20 -10 -4 -16 -1 -16 7 0 8 -6 17 -12 19 -7 3 -8 6 -2 6 5
1 18 -5 28 -12z m381 3 c3 -5 2 -10 -4 -10 -5 0 -13 5 -16 10 -3 6 -2 10 4 10
5 0 13 -4 16 -10z m2530 -25 c-22 -13 -50 -25 -62 -25 -13 0 -23 -4 -23 -10 0
-5 -10 -10 -22 -10 -19 0 -16 3 12 16 19 8 51 24 70 34 51 28 72 24 25 -5z
m46 2 c-6 -8 -9 -16 -7 -18 2 -2 -6 -5 -19 -5 -19 -2 -22 1 -12 10 10 11 31
22 46 25 2 1 -2 -5 -8 -12z m-101 -57 c-14 -4 -38 -8 -55 -8 -29 1 -29 1 5 8
50 11 83 11 50 0z m-2445 -13 c-10 -8 -15 -18 -12 -23 3 -6 -3 -11 -14 -11
-17 -2 -18 0 -4 13 8 9 15 18 15 22 0 3 -5 1 -12 -6 -7 -7 -19 -12 -27 -12
-11 0 -10 4 5 15 10 8 30 15 43 15 23 0 24 -1 6 -13z m2320 3 c-3 -5 -10 -10
-16 -10 -5 0 -9 5 -9 10 0 6 7 10 16 10 8 0 12 -4 9 -10z m-2915 -30 c-24 -15
-36 -11 -14 4 10 8 21 12 24 10 2 -3 -2 -9 -10 -14z m3020 16 c0 -11 -19 -15
-25 -6 -3 5 1 10 9 10 9 0 16 -2 16 -4z m-2495 -24 c-3 -3 -11 0 -18 7 -9 10
-8 11 6 5 10 -3 15 -9 12 -12z m2435 9 c0 -4 -11 -6 -25 -3 -14 2 -25 6 -25 8
0 2 11 4 25 4 14 0 25 -4 25 -9z m-3005 -11 c3 -5 -1 -10 -9 -10 -19 0 -20
-11 -3 -30 10 -12 9 -12 -6 -1 -24 19 -35 5 -11 -15 18 -14 17 -14 -6 -3 -14
6 -27 13 -29 15 -4 4 42 53 51 53 4 1 10 -3 13 -9z m812 -27 c-3 -10 -5 -4 -5
12 0 17 2 24 5 18 2 -7 2 -21 0 -30z m2070 1 c-3 -3 -12 -4 -19 -1 -8 3 -5 6
6 6 11 1 17 -2 13 -5z m-2028 -77 c1 -16 -3 -26 -8 -22 -6 3 -9 24 -9 48 1 31
3 37 9 22 4 -11 8 -33 8 -48z m1978 57 c-3 -3 -12 -4 -19 -1 -8 3 -5 6 6 6 11
1 17 -2 13 -5z m-2015 -51 c-7 -35 -22 -39 -22 -5 0 17 5 29 13 29 9 0 12 -9
9 -24z m1888 -78 c-4 -22 -8 -34 -9 -27 0 7 -5 10 -11 7 -6 -4 -10 6 -9 22 0
25 1 26 9 8 l9 -20 1 20 c2 11 1 27 0 35 -1 10 2 12 8 5 6 -6 7 -26 2 -50z
m-2872 15 c-7 -11 -17 -20 -21 -20 -5 0 -6 -12 -3 -27 6 -26 5 -27 -9 -9 -13
17 -12 22 6 47 23 33 46 40 27 9z m1069 -22 c-3 -8 -6 -5 -6 6 -1 11 2 17 5
13 3 -3 4 -12 1 -19z m1782 -80 c-1 -39 -2 -41 -8 -13 -4 17 -5 36 -3 43 8 23
12 12 11 -30z m2897 20 c15 -18 16 -20 2 -9 -11 8 -28 11 -45 6 -23 -5 -25 -4
-14 9 18 22 35 20 57 -6z m-5833 -31 c-10 -12 -27 -39 -37 -59 -10 -21 -23
-35 -27 -32 -5 3 6 28 24 57 18 29 37 59 42 67 7 11 10 11 13 1 2 -7 -4 -22
-15 -34z m5732 23 c8 -13 -5 -13 -25 0 -13 8 -13 10 2 10 9 0 20 -4 23 -10z
m-218 -42 c-15 -5 -11 -7 16 -5 20 2 37 0 37 -4 0 -10 72 1 85 13 6 6 0 7 -17
3 -15 -4 -35 -2 -45 5 -15 9 -12 10 17 5 25 -5 31 -3 20 4 -8 5 -11 13 -7 18
5 4 11 3 15 -3 11 -17 35 -22 56 -12 11 6 16 6 13 1 -8 -13 52 -14 86 -1 24 9
31 8 48 -11 12 -12 18 -25 14 -29 -4 -4 -10 -1 -12 6 -5 14 -39 16 -48 3 -3
-5 3 -11 12 -14 10 -2 -2 -2 -27 0 -34 3 -41 2 -30 -6 13 -10 13 -11 0 -12
-51 -5 -61 -7 -67 -13 -3 -3 4 -6 16 -6 12 0 20 -4 17 -9 -4 -5 0 -12 6 -14 9
-4 10 -6 1 -6 -6 -1 -15 4 -18 9 -3 6 -14 10 -23 10 -15 0 -15 -2 -2 -10 13
-8 13 -10 -2 -10 -9 0 -18 5 -20 11 -2 7 -26 -1 -63 -22 -33 -19 -53 -35 -45
-37 8 -3 16 0 18 7 5 14 29 15 34 0 2 -7 13 -6 33 2 17 7 44 13 60 15 17 1 21
0 10 -3 -11 -3 -27 -11 -35 -18 -18 -15 -80 -28 -80 -16 0 4 -17 7 -37 5 -55
-3 -55 -3 -48 -14 4 -6 12 -8 18 -4 7 3 3 -2 -7 -10 -11 -9 -24 -16 -29 -16
-5 0 -4 -7 3 -15 10 -12 10 -15 -4 -15 -9 0 -16 8 -16 20 0 12 7 20 17 20 9 0
13 3 10 7 -4 3 -18 0 -32 -7 -21 -11 -23 -16 -12 -28 10 -13 9 -15 -7 -9 -25
10 -124 -71 -104 -85 9 -6 6 -7 -8 -3 -12 3 -41 -1 -65 -8 -24 -8 -64 -13 -89
-13 -25 1 -48 -3 -51 -7 -3 -5 -13 -2 -21 7 -20 20 -68 32 -68 17 0 -6 5 -11
12 -11 6 0 9 -2 6 -5 -3 -3 -13 -3 -22 1 -12 5 -14 10 -5 20 6 7 8 18 4 23 -9
16 44 63 102 91 38 19 49 28 41 38 -14 16 -29 15 -22 -2 5 -13 -24 -31 -34
-21 -3 3 0 5 7 5 7 0 11 6 8 14 -8 21 22 29 47 13 26 -17 47 -11 39 10 -5 12
-1 14 14 9 30 -9 75 10 71 31 -2 11 5 19 17 21 16 4 17 2 7 -11 -22 -26 69 2
97 30 26 25 47 30 54 11 3 -10 8 -10 21 1 16 13 16 15 1 24 -9 5 -28 6 -43 3
-18 -5 -22 -4 -13 2 11 8 11 11 0 16 -8 3 -4 3 9 0 34 -8 62 4 55 24 -4 13 -2
12 10 -3 14 -19 14 -21 -6 -27z m-4222 12 c3 -5 -1 -10 -9 -10 -8 0 -18 5 -21
10 -3 6 1 10 9 10 8 0 18 -4 21 -10z m-1288 -40 c-21 -38 -37 -51 -37 -30 0 6
4 10 9 10 5 0 13 10 17 23 5 18 21 36 31 37 1 0 -8 -18 -20 -40z m2912 0 c24
-27 37 -32 151 -51 123 -20 210 -48 210 -68 0 -5 9 -12 19 -16 11 -3 29 -21
40 -40 21 -36 14 -47 -13 -19 -18 18 -18 22 -19 -88 0 -60 4 -76 46 -161 26
-52 47 -103 47 -114 0 -10 15 -50 33 -88 72 -151 107 -293 107 -430 0 -89 -59
-307 -92 -342 -12 -13 -51 -32 -87 -43 -36 -11 -83 -31 -105 -46 l-39 -27 6
-66 c4 -36 9 -98 13 -136 l6 -70 -38 -19 c-22 -10 -58 -31 -80 -46 -23 -15
-47 -25 -53 -21 -29 19 -234 616 -245 716 -4 33 -13 87 -21 120 -44 188 -78
382 -70 396 4 5 13 9 21 9 19 0 34 41 34 96 0 24 3 44 8 44 13 0 72 -40 72
-49 0 -5 -7 -14 -15 -21 -10 -8 -15 -30 -15 -61 0 -104 40 -131 71 -48 16 43
16 48 -2 99 -10 30 -35 70 -54 90 -19 19 -41 55 -50 79 -8 24 -31 63 -50 87
-19 23 -35 52 -35 63 0 26 5 26 37 1 14 -11 30 -20 34 -20 17 0 9 44 -12 66
l-22 23 43 66 c23 36 49 84 57 107 24 70 26 71 62 28z m-1569 9 c0 -5 5 -7 10
-4 6 4 10 3 9 -2 -4 -20 2 -31 20 -36 11 -2 31 -28 46 -57 25 -49 133 -216
220 -340 21 -30 55 -73 77 -95 39 -40 46 -59 28 -70 -13 -8 -13 -26 0 -23 17
5 71 -95 57 -104 -8 -5 -6 -8 5 -8 10 0 27 -12 38 -27 35 -49 35 -49 -102 -55
-54 -3 -59 -1 -80 27 -89 119 -220 426 -248 580 -16 89 -18 95 -28 95 -8 0
-34 -73 -58 -162 -5 -17 -64 -43 -64 -28 0 4 5 10 11 12 6 2 11 25 11 51 0 27
5 50 12 54 16 10 42 119 38 156 -2 16 -9 27 -18 27 -8 0 -12 5 -9 10 8 13 25
13 25 -1z m1610 -9 c0 -5 10 -10 22 -10 12 0 19 -3 15 -6 -9 -9 -68 7 -61 17
7 12 24 12 24 -1z m-1663 -37 c-3 -10 -5 -4 -5 12 0 17 2 24 5 18 2 -7 2 -21
0 -30z m4083 22 c-7 -9 -15 -13 -19 -10 -3 3 1 10 9 15 21 14 24 12 10 -5z
m-4044 -20 c-4 -24 -16 -30 -16 -7 0 12 4 22 9 22 5 0 8 -7 7 -15z m3948 -7
c-3 -4 -10 -8 -15 -8 -6 0 -17 -7 -25 -15 -9 -8 -23 -15 -32 -15 -12 0 -9 6
11 18 15 9 27 20 27 24 0 4 9 6 19 5 11 0 17 -5 15 -9z m487 -5 c-11 -5 -11
-7 0 -14 8 -5 9 -9 3 -9 -6 0 -17 7 -24 15 -10 13 -9 15 11 14 13 0 18 -3 10
-6z m-135 -28 c-20 -15 -36 -19 -36 -10 0 5 38 23 50 24 3 0 -4 -6 -14 -14z
m-361 -5 c-27 -12 -43 -12 -25 0 8 5 22 9 30 9 10 0 8 -3 -5 -9z m-1924 -52
c11 -21 11 -22 -4 -9 -10 7 -17 17 -17 22 0 15 9 10 21 -13z m1722 10 c3 -10
7 -10 19 0 10 7 19 9 22 4 7 -12 -30 -23 -50 -15 -8 3 -14 9 -14 14 0 14 18
11 23 -3z m-3770 -23 c-7 -21 -13 -19 -13 6 0 11 4 18 10 14 5 -3 7 -12 3 -20z
m3807 -17 c0 -4 -6 -8 -14 -8 -7 0 -19 -7 -26 -15 -10 -12 -16 -13 -26 -4 -20
17 -1 36 36 36 16 0 30 -4 30 -9z m-5193 -45 c-3 -10 -5 -2 -5 17 0 19 2 27 5
18 2 -10 2 -26 0 -35z m5623 43 c0 -2 -7 -7 -16 -10 -8 -3 -12 -2 -9 4 6 10
25 14 25 6z m-2105 -16 c3 -5 1 -10 -4 -10 -6 0 -11 5 -11 10 0 6 2 10 4 10 3
0 8 -4 11 -10z m1995 -18 c0 -5 -7 -17 -15 -28 -14 -18 -14 -17 -4 9 12 27 19
34 19 19z m-1980 -33 c0 -4 -7 -6 -15 -3 -8 4 -15 10 -15 15 0 4 7 6 15 3 8
-4 15 -10 15 -15z m1536 -37 c-4 -3 -12 0 -18 6 -9 9 -9 12 0 12 7 0 13 10 13
23 2 17 3 15 6 -6 3 -16 2 -31 -1 -35z m36 33 c-2 -14 -8 -23 -12 -20 -10 6
-1 45 10 45 4 0 5 -11 2 -25z m-1603 -50 c16 -5 21 -4 17 4 -12 19 -1 12 44
-30 25 -23 62 -52 83 -66 20 -14 37 -30 37 -35 0 -20 37 -48 55 -42 14 6 16 3
10 -16 -6 -19 -4 -22 9 -17 10 4 21 -1 28 -13 7 -11 21 -20 32 -20 15 0 16 -3
6 -15 -10 -12 -10 -15 3 -15 8 0 21 -8 28 -17 12 -15 12 -16 -3 -10 -10 3 -18
3 -18 -1 0 -11 32 -55 63 -88 l28 -29 -11 28 c-12 35 -13 40 -1 33 5 -4 12 0
15 6 3 7 4 1 1 -14 -4 -22 -2 -26 10 -22 8 4 15 2 15 -3 0 -6 16 -26 35 -46
19 -20 35 -39 35 -42 0 -3 9 -15 20 -27 10 -11 22 -35 26 -52 7 -34 43 -94 68
-115 9 -7 16 -22 16 -33 0 -11 7 -26 15 -34 17 -17 20 -44 6 -44 -15 0 -41 42
-41 66 0 12 -18 38 -42 60 -23 21 -39 31 -35 21 14 -36 -15 -13 -108 86 -100
109 -130 145 -123 153 3 2 35 -29 73 -68 37 -40 84 -90 103 -110 58 -62 49
-34 -13 39 -99 117 -169 188 -181 185 -17 -4 -57 55 -50 73 3 8 1 15 -4 15 -6
0 -10 6 -10 14 0 16 -28 41 -36 33 -3 -3 3 -16 15 -28 12 -13 21 -27 21 -32 0
-5 -26 18 -57 50 -81 83 -102 110 -95 118 4 3 0 10 -8 15 -9 6 -17 5 -22 -3
-5 -8 -8 -9 -8 -1 0 6 -14 17 -31 24 -19 8 -28 18 -25 27 4 9 1 13 -6 11 -15
-5 -40 17 -57 49 -18 35 -13 39 17 11 15 -14 38 -29 51 -33z m1960 29 c-6 -8
-15 -12 -18 -8 -3 4 0 9 7 11 6 3 9 10 6 15 -4 7 -2 8 5 4 9 -6 9 -11 0 -22z
m58 -9 c1 -5 -10 -10 -26 -11 -23 -1 -27 2 -18 12 13 15 39 14 44 -1z m-5517
-19 c0 -3 -4 -8 -10 -11 -5 -3 -10 -1 -10 4 0 6 5 11 10 11 6 0 10 -2 10 -4z
m5375 -16 c-3 -5 -10 -10 -16 -10 -5 0 -9 5 -9 10 0 6 7 10 16 10 8 0 12 -4 9
-10z m-45 -14 c0 -2 -11 -6 -25 -8 -14 -3 -25 -1 -25 3 0 5 11 9 25 9 14 0 25
-2 25 -4z m-4022 -15 c11 -7 10 -9 -3 -14 -11 -5 -14 -3 -9 5 5 8 2 9 -10 5
-10 -4 -15 -3 -11 3 7 12 16 12 33 1z m-1226 -55 c10 6 10 4 -1 -9 -9 -11 -10
-17 -2 -17 6 0 11 -6 11 -12 0 -7 -16 4 -35 24 -40 42 -48 63 -11 29 16 -15
29 -20 38 -15z m1111 4 c-7 -28 -13 -25 -13 6 0 14 4 23 9 20 5 -3 7 -15 4
-26z m1512 -106 c-38 -244 -119 -378 -238 -397 l-39 -6 17 27 c10 15 26 36 35
47 20 22 70 126 70 143 0 7 3 12 8 12 13 0 72 126 72 154 0 34 74 145 88 132
2 -3 -4 -53 -13 -112z m-2570 46 c13 -6 15 -9 5 -9 -8 0 -22 4 -30 9 -18 12
-2 12 25 0z m915 0 c0 -5 -2 -10 -4 -10 -3 0 -8 5 -11 10 -3 6 -1 10 4 10 6 0
11 -4 11 -10z m-875 -10 c3 -5 1 -10 -4 -10 -6 0 -11 5 -11 10 0 6 2 10 4 10
3 0 8 -4 11 -10z m925 0 c0 -5 -5 -10 -11 -10 -5 0 -7 5 -4 10 3 6 8 10 11 10
2 0 4 -4 4 -10z m-883 -6 c-3 -3 -12 -4 -19 -1 -8 3 -5 6 6 6 11 1 17 -2 13
-5z m8 -24 c3 -5 1 -10 -4 -10 -6 0 -11 5 -11 10 0 6 2 10 4 10 3 0 8 -4 11
-10z m799 -24 c-6 -16 -24 -23 -24 -8 0 10 22 33 27 28 2 -2 1 -11 -3 -20z
m1589 -3 c-7 -3 -13 -9 -13 -15 0 -5 -7 -16 -15 -24 -23 -23 -18 -1 6 30 12
15 24 24 28 20 3 -4 0 -9 -6 -11z m-2383 -3 c-8 -5 -26 -9 -40 -9 -23 1 -23 2
5 9 43 11 52 11 35 0z m3680 -10 c0 -5 -4 -10 -10 -10 -5 0 -10 5 -10 10 0 6
5 10 10 10 6 0 10 -4 10 -10z m-2915 -9 c3 -5 1 -12 -5 -16 -5 -3 -10 1 -10 9
0 18 6 21 15 7z m-22 -43 c-2 -5 -9 -8 -14 -8 -6 0 -36 -26 -67 -58 -32 -32
-78 -68 -104 -81 -27 -12 -48 -26 -48 -30 0 -4 -15 -16 -34 -26 -19 -11 -33
-22 -30 -26 2 -4 -10 -10 -27 -14 -30 -7 -54 -25 -126 -92 -39 -38 -49 -40
-56 -13 -3 13 1 21 14 25 10 4 19 12 19 19 0 7 20 23 45 36 26 13 44 29 41 36
-6 17 55 28 66 12 5 -9 8 -7 8 6 0 19 45 68 54 59 8 -8 75 47 81 68 4 13 16
19 34 19 31 0 79 29 49 30 -9 0 -20 -4 -23 -10 -3 -5 -11 -10 -17 -10 -7 0 -6
6 2 15 7 8 18 15 25 15 18 0 56 36 47 45 -4 4 3 3 15 -4 31 -16 52 -14 30 3
-13 10 -15 15 -5 18 13 5 29 -21 21 -34z m-873 8 c-14 -8 -41 -17 -60 -21 -19
-4 -40 -12 -47 -17 -7 -5 -13 -5 -17 1 -3 5 17 14 44 21 28 7 53 16 56 21 3 5
15 9 27 9 21 -1 21 -1 -3 -14z m3805 -4 c-3 -3 -11 0 -18 7 -9 10 -8 11 6 5
10 -3 15 -9 12 -12z m-3765 -12 c0 -5 -7 -10 -16 -10 -8 0 -12 5 -9 10 3 6 10
10 16 10 5 0 9 -4 9 -10z m3758 -31 c-2 -6 -8 -10 -13 -10 -5 0 -11 4 -13 10
-2 6 4 11 13 11 9 0 15 -5 13 -11z m102 1 c0 -5 -2 -10 -4 -10 -3 0 -8 5 -11
10 -3 6 -1 10 4 10 6 0 11 -4 11 -10z m1970 -10 c0 -5 -4 -10 -10 -10 -5 0
-10 5 -10 10 0 6 5 10 10 10 6 0 10 -4 10 -10z m-35 -20 c-3 -5 -18 -9 -33 -9
l-27 1 30 8 c17 4 31 8 33 9 2 0 0 -3 -3 -9z m-5985 -14 c0 -2 -7 -6 -15 -10
-8 -3 -15 -1 -15 4 0 6 7 10 15 10 8 0 15 -2 15 -4z m5776 -7 c7 -11 -12 -29
-31 -29 -5 1 -2 5 9 11 15 9 16 13 5 20 -9 6 -10 9 -2 9 6 0 15 -5 19 -11z
m49 -25 c-8 -6 -12 -14 -8 -18 4 -4 -3 -9 -15 -13 -12 -3 -22 -9 -22 -14 0 -5
-4 -9 -10 -9 -21 0 -9 19 18 28 15 6 22 11 15 11 -6 1 -23 -3 -37 -9 -16 -6
-27 -6 -31 1 -4 5 -3 9 2 8 9 -2 63 11 76 18 4 3 2 12 -5 20 -12 15 -11 15 10
2 19 -12 20 -16 7 -25z m90 26 c3 -5 2 -10 -4 -10 -5 0 -13 5 -16 10 -3 6 -2
10 4 10 5 0 13 -4 16 -10z m-6094 -56 c-18 -13 -20 -18 -10 -26 10 -7 8 -8 -7
-3 -25 7 -56 -3 -48 -16 6 -10 -9 -12 -19 -2 -7 7 16 25 61 49 37 19 52 18 23
-2z m6216 0 c-3 -3 -12 -4 -19 -1 -8 3 -5 6 6 6 11 1 17 -2 13 -5z m-140 -70
c-3 -3 -12 -4 -19 -1 -8 3 -5 6 6 6 11 1 17 -2 13 -5z m-6157 -24 c0 -5 -2
-10 -4 -10 -3 0 -8 5 -11 10 -3 6 -1 10 4 10 6 0 11 -4 11 -10z m6035 -10 c3
-5 1 -10 -4 -10 -6 0 -11 5 -11 10 0 6 2 10 4 10 3 0 8 -4 11 -10z m-1570 -30
c3 -5 1 -10 -4 -10 -6 0 -11 5 -11 10 0 6 2 10 4 10 3 0 8 -4 11 -10z m35 -69
c0 -11 -4 -10 -15 5 -8 10 -14 26 -14 34 0 11 3 10 14 -4 8 -11 15 -27 15 -35z
m156 -48 c-6 -6 -36 9 -36 18 0 5 9 4 20 -3 10 -7 18 -14 16 -15z m-3873 0
c-7 -2 -13 -12 -14 -21 0 -11 -2 -12 -6 -4 -8 20 -17 14 -32 -19 -7 -16 -26
-44 -42 -62 -16 -17 -29 -37 -29 -45 0 -20 -46 -65 -59 -58 -16 10 -14 46 3
52 8 3 20 20 27 37 14 34 46 66 67 67 6 0 12 5 12 11 0 17 43 48 65 48 11 0
14 -3 8 -6z m3757 -33 c18 -23 30 -43 27 -46 -3 -4 -25 9 -49 27 -24 19 -45
35 -47 36 -1 1 0 6 4 12 12 21 33 11 65 -29z m-270 24 c0 -11 -52 -55 -58 -50
-3 4 5 17 18 31 23 24 40 32 40 19z m477 -110 c-7 -7 -24 19 -32 46 -5 20 -3
19 15 -9 11 -18 19 -35 17 -37z m-1826 -10 c4 -5 5 -43 0 -82 -5 -53 -13 -78
-28 -94 -34 -34 -116 -49 -303 -55 l-175 -6 -47 74 c-42 67 -49 99 -14 70 16
-13 42 -15 141 -7 82 6 316 63 270 66 -28 2 -27 3 10 11 22 5 50 14 62 20 11
6 26 9 31 5 6 -3 13 -2 17 4 3 5 1 10 -4 10 -18 0 -12 18 7 22 9 2 19 -3 21
-12 2 -8 7 -20 12 -26z m179 -19 c0 -8 -9 -19 -20 -25 -23 -12 -24 -11 -10 25
10 26 30 26 30 0z m1710 -57 c0 -13 -12 -9 -26 10 -7 9 -13 24 -13 32 -1 10 6
6 19 -10 11 -14 20 -28 20 -32z m-167 9 c28 -18 61 -37 72 -43 25 -13 98 -108
86 -112 -15 -5 -136 69 -164 101 -29 33 -61 87 -52 87 3 0 29 -15 58 -33z
m-4063 -7 c0 -5 -2 -10 -4 -10 -3 0 -8 5 -11 10 -3 6 -1 10 4 10 6 0 11 -4 11
-10z m4295 -58 c5 -12 16 -20 23 -17 6 2 18 -4 24 -15 7 -11 17 -20 23 -20 5
0 22 -14 36 -32 22 -27 30 -30 42 -20 23 20 43 5 44 -33 1 -19 -3 -38 -8 -41
-9 -5 -47 22 -116 84 -13 10 -23 27 -23 36 0 9 -7 16 -15 16 -8 0 -20 9 -27
20 -14 23 -34 26 -41 8 -2 -7 -7 -11 -9 -8 -3 3 -2 16 3 28 11 28 30 25 44 -6z
m-4281 -7 c-4 -8 -8 -15 -10 -15 -2 0 -4 7 -4 15 0 8 4 15 10 15 5 0 7 -7 4
-15z m4397 -22 c13 -16 12 -17 -3 -4 -10 7 -18 15 -18 17 0 8 8 3 21 -13z
m-4461 -43 c0 -5 -4 -10 -10 -10 -5 0 -10 5 -10 10 0 6 5 10 10 10 6 0 10 -4
10 -10z m4025 -19 c-30 -28 -94 -51 -142 -51 -71 0 -68 16 5 24 31 4 68 13 82
21 28 16 70 20 55 6z m563 -89 c2 -7 -5 -12 -17 -12 -14 0 -19 5 -14 15 6 17
25 15 31 -3z m-4640 -9 c-2 -10 -7 -21 -12 -24 -4 -4 -3 -16 3 -27 8 -16 7
-21 -4 -26 -25 -9 -18 -28 7 -20 20 6 21 5 10 -9 -8 -9 -26 -15 -41 -14 l-27
2 18 48 c17 45 39 87 46 87 2 0 2 -8 0 -17z m4672 8 c0 -5 -6 -14 -14 -20 -12
-10 -13 -8 -9 8 5 21 23 30 23 12z m-266 -35 c-5 -13 -9 -14 -14 -5 -11 16 0
43 12 31 5 -5 6 -17 2 -26z m337 -26 c28 0 44 -8 78 -41 23 -23 39 -44 36 -47
-3 -3 -11 0 -17 6 -7 7 -28 12 -48 12 -29 0 -39 5 -50 25 -7 14 -21 25 -31 25
-25 0 -49 11 -49 22 0 6 10 8 23 4 12 -3 38 -6 58 -6z m-1155 -37 c-3 -8 -6
-19 -6 -24 0 -6 -5 -7 -10 -4 -6 4 -8 10 -5 15 3 5 1 19 -5 31 -11 19 -10 20
10 9 13 -7 19 -17 16 -27z m-3986 17 c8 -5 11 -10 5 -10 -5 0 -17 5 -25 10 -8
5 -10 10 -5 10 6 0 17 -5 25 -10z m60 0 c18 -12 2 -12 -25 0 -13 6 -15 9 -5 9
8 0 22 -4 30 -9z m7 -36 c-3 -3 -12 -4 -19 -1 -8 3 -5 6 6 6 11 1 17 -2 13 -5z
m43 -24 c8 -5 11 -10 5 -10 -5 0 -17 5 -25 10 -8 5 -10 10 -5 10 6 0 17 -5 25
-10z m5180 -35 c13 -16 8 -18 -27 -9 -13 4 -23 10 -23 15 0 15 37 10 50 -6z
m-230 -98 c0 -14 -82 -89 -134 -122 l-28 -19 28 53 c16 29 42 64 57 77 31 26
77 32 77 11z m285 3 c3 -5 15 -10 25 -10 10 0 22 -5 26 -12 5 -8 -4 -9 -32 -5
-21 4 -40 11 -42 17 -2 5 -8 8 -13 4 -5 -3 -9 0 -9 5 0 14 37 14 45 1z m114
-66 c-9 -11 -7 -14 9 -14 11 0 28 -7 36 -16 9 -8 16 -12 16 -8 0 4 9 -1 21
-12 15 -13 19 -26 15 -46 -3 -16 -1 -28 4 -28 6 0 10 5 10 10 0 6 5 10 12 10
6 0 8 -3 5 -7 -4 -3 7 -14 23 -24 36 -23 38 -40 5 -56 -14 -6 -25 -8 -25 -3 0
4 -12 11 -27 15 -27 6 -27 7 -9 21 21 15 21 16 -11 33 -13 6 -23 16 -23 22 0
6 5 7 10 4 6 -3 10 -3 10 2 -1 12 -78 58 -98 58 -11 0 -16 7 -14 20 5 37 11
45 27 39 12 -5 13 -9 4 -20z m-59 -34 c0 -5 -4 -10 -10 -10 -5 0 -10 5 -10 10
0 6 5 10 10 10 6 0 10 -4 10 -10z m-131 -22 c24 3 32 1 27 -7 -4 -6 -11 -11
-15 -11 -5 0 -26 -8 -47 -17 -22 -9 -48 -18 -59 -19 -11 0 -28 -5 -39 -9 -18
-8 -18 -7 0 20 10 15 32 36 49 46 25 16 32 17 40 5 7 -8 22 -11 44 -8z m-1273
-60 c91 -59 109 -98 45 -96 -15 1 -32 -2 -37 -5 -5 -3 -18 2 -29 10 -20 15
-20 15 3 8 26 -7 29 7 6 26 -13 10 -17 10 -24 -1 -10 -17 -32 -22 -87 -20 -24
0 -43 -4 -43 -10 0 -5 -3 -9 -7 -9 -21 3 -32 -2 -27 -15 3 -8 1 -17 -5 -21 -6
-3 -11 -16 -11 -29 0 -12 -6 -28 -12 -34 -10 -10 -10 -15 1 -21 16 -10 6 -32
-12 -25 -7 2 -13 30 -15 73 -3 68 -2 68 28 81 50 21 79 49 106 101 17 34 29
47 37 42 7 -4 44 -29 83 -55z m-3701 42 c-3 -5 -11 -10 -16 -10 -6 0 -7 5 -4
10 3 6 11 10 16 10 6 0 7 -4 4 -10z m-40 -20 c-3 -5 -11 -10 -16 -10 -6 0 -7
5 -4 10 3 6 11 10 16 10 6 0 7 -4 4 -10z m95 -32 c0 -4 -4 -10 -10 -13 -5 -3
-10 1 -10 9 0 9 -4 16 -10 16 -5 0 -10 5 -10 10 0 6 8 5 20 -2 11 -7 20 -16
20 -20z m3450 22 c0 -5 -5 -10 -11 -10 -5 0 -7 5 -4 10 3 6 8 10 11 10 2 0 4
-4 4 -10z m-3580 -10 c0 -5 -4 -10 -10 -10 -5 0 -10 5 -10 10 0 6 5 10 10 10
6 0 10 -4 10 -10z m-60 -34 c0 -3 -4 -8 -10 -11 -5 -3 -10 -1 -10 4 0 6 5 11
10 11 6 0 10 -2 10 -4z m-35 -26 c-3 -5 -11 -10 -16 -10 -6 0 -7 5 -4 10 3 6
11 10 16 10 6 0 7 -4 4 -10z m5354 -11 c30 -10 56 -40 45 -51 -5 -6 -172 20
-186 28 -5 3 -4 12 3 20 14 17 93 19 138 3z m-5143 -25 c-4 -9 -9 -15 -11 -12
-3 3 -3 13 1 22 4 9 9 15 11 12 3 -3 3 -13 -1 -22z m5340 -16 c4 -7 3 -8 -4
-4 -16 10 -15 -10 1 -26 18 -18 39 -58 31 -58 -7 0 -83 40 -102 54 -10 7 -6
14 20 27 41 21 45 22 54 7z m-1522 -59 c-2 -4 3 -12 11 -19 8 -7 12 -17 9 -22
-4 -5 -11 1 -18 14 -6 12 -22 24 -34 26 -18 3 -21 7 -12 17 8 9 8 15 0 20 -5
3 -10 11 -10 16 0 6 13 -2 29 -18 16 -15 27 -31 25 -34z m-2447 29 c21 -17 15
-34 -21 -51 -40 -18 -52 -54 -41 -124 4 -30 2 -49 -6 -60 -11 -13 -16 4 -30
103 -10 65 -15 122 -12 127 16 26 81 29 110 5z m-1699 -2 c-7 -8 -15 -12 -17
-11 -5 6 10 25 20 25 5 0 4 -6 -3 -14z m319 -48 c-3 -8 -6 -5 -6 6 -1 11 2 17
5 13 3 -3 4 -12 1 -19z m5253 -33 c14 -4 48 -17 77 -31 28 -13 59 -21 68 -18
13 6 14 8 3 15 -10 7 -10 9 2 9 8 0 21 -4 29 -9 11 -7 7 -12 -14 -24 -27 -14
-28 -15 -8 -21 20 -6 103 -104 103 -120 0 -5 7 -23 16 -42 9 -20 14 -48 12
-66 -3 -18 -1 -46 4 -63 12 -39 17 -125 7 -130 -4 -3 -19 8 -32 25 -14 16 -30
30 -36 30 -6 0 -11 6 -11 13 0 21 -81 85 -161 127 -81 42 -177 70 -245 70 -26
0 -49 7 -63 19 -22 19 -22 19 -2 26 12 3 21 15 21 25 0 24 53 35 118 25 26 -4
65 -9 87 -12 22 -2 42 -9 45 -13 3 -5 19 -6 34 -2 l29 8 -24 15 c-69 43 -145
59 -278 60 -89 0 -92 1 -77 18 14 15 14 20 3 29 -8 7 -16 9 -19 6 -3 -3 -9 -1
-13 5 -23 38 200 55 325 26z m165 5 c3 -5 1 -10 -4 -10 -6 0 -11 5 -11 10 0 6
2 10 4 10 3 0 8 -4 11 -10z m-1426 -160 c56 -64 62 -86 14 -52 -19 13 -38 19
-58 15 -23 -3 -27 -2 -15 6 10 7 11 14 5 19 -13 9 -35 58 -35 78 0 24 30 2 89
-66z m-552 3 c33 -25 34 -28 16 -41 -17 -12 -17 -14 0 -23 17 -10 23 -40 11
-52 -12 -12 -62 32 -62 55 -1 13 -4 38 -8 56 -8 39 -3 40 43 5z m-3470 -55
c-3 -8 -6 -5 -6 6 -1 11 2 17 5 13 3 -3 4 -12 1 -19z m4257 -20 c35 -15 43
-46 18 -70 -19 -20 -19 -20 -49 12 -17 18 -41 33 -53 34 -40 2 -34 24 7 29 21
2 41 4 45 5 4 1 18 -3 32 -10z m-787 -112 c-10 -26 -24 -18 -30 17 -7 50 4 66
21 30 8 -17 12 -38 9 -47z m-549 12 c2 -14 -4 -54 -13 -89 -28 -109 -60 -137
-90 -78 -15 28 -15 34 1 81 17 53 69 121 88 115 6 -2 12 -15 14 -29z m-2266
-25 c2 -5 19 -21 38 -37 75 -62 102 -87 96 -93 -6 -7 -103 42 -130 66 -31 27
-41 71 -16 71 4 0 10 -3 12 -7z m3748 -49 c0 -8 -5 -12 -10 -9 -6 4 -8 11 -5
16 9 14 15 11 15 -7z m-920 -3 c0 -6 -4 -12 -9 -15 -5 -4 -5 -23 1 -46 8 -29
7 -48 -2 -70 -20 -48 -31 -25 -29 61 1 70 4 79 20 79 11 0 19 -4 19 -9z m954
-8 c4 -5 20 -9 34 -9 58 -3 108 -18 130 -37 18 -17 21 -27 16 -56 -9 -46 -9
-47 -38 -27 -14 9 -32 16 -41 16 -8 0 -15 7 -15 15 0 9 -11 20 -25 27 -13 6
-22 15 -19 19 2 4 -11 15 -31 25 -19 9 -35 20 -35 25 0 11 14 12 24 2z m-1644
-125 c17 -29 18 -34 4 -49 -24 -27 -73 -44 -86 -31 -9 9 -7 16 5 30 9 10 22
33 28 50 14 40 24 40 49 0z m-2803 -80 c-2 -13 -4 -3 -4 22 0 25 2 35 4 23 2
-13 2 -33 0 -45z m3493 12 c0 -16 3 -30 8 -30 4 0 16 -13 26 -27 17 -23 17
-26 3 -20 -10 4 -17 2 -17 -5 0 -6 -11 -1 -25 12 -29 28 -37 100 -10 100 10 0
15 -10 15 -30z m-3523 -42 c-3 -8 -6 -5 -6 6 -1 11 2 17 5 13 3 -3 4 -12 1
-19z m43 -51 c0 -67 -16 -72 -17 -6 -1 36 2 57 7 54 6 -4 10 -25 10 -48z m810
-137 c0 -5 -4 -10 -9 -10 -6 0 -13 5 -16 10 -3 6 1 10 9 10 9 0 16 -4 16 -10z
m2104 -461 c10 -53 -12 -105 -28 -63 -8 21 -8 79 1 87 13 13 21 6 27 -24z
m-389 1 c7 -12 -38 -56 -65 -63 -28 -7 -26 18 5 48 25 26 50 32 60 15z m370
-210 c8 -13 -3 -50 -15 -50 -12 0 -23 37 -15 50 3 5 10 10 15 10 5 0 12 -5 15
-10z m-2465 -118 c-8 -3 -90 46 -90 54 0 2 22 -8 49 -24 28 -15 46 -28 41 -30z
m40 -12 c0 -5 -5 -10 -11 -10 -5 0 -7 5 -4 10 3 6 8 10 11 10 2 0 4 -4 4 -10z
m-465 -21 c-4 -5 -12 -9 -18 -8 -9 0 -8 2 1 6 6 2 9 10 6 15 -4 7 -2 8 5 4 6
-4 9 -12 6 -17z m4735 11 c0 -5 -8 -10 -17 -10 -15 0 -16 2 -3 10 19 12 20 12
20 0z m-4197 -14 c122 -53 210 -88 257 -102 108 -32 109 -32 70 -33 -49 -1
-232 62 -315 109 -68 39 -75 54 -12 26z m4184 -12 c-3 -3 -12 -4 -19 -1 -8 3
-5 6 6 6 11 1 17 -2 13 -5z m-3780 -130 c-3 -3 -12 -4 -19 -1 -8 3 -5 6 6 6
11 1 17 -2 13 -5z m-158 -276 c30 -7 51 -17 51 -25 0 -33 -143 -110 -348 -187
-135 -50 -200 -68 -310 -86 -39 -7 -70 -15 -68 -19 3 -4 -11 -5 -31 -3 -42 5
-34 14 27 31 100 28 274 128 396 227 31 25 72 52 92 59 47 17 126 18 191 3z
m-1204 -38 c3 -5 1 -10 -4 -10 -6 0 -11 5 -11 10 0 6 2 10 4 10 3 0 8 -4 11
-10z m1778 -67 c-7 -2 -21 -2 -30 0 -10 3 -4 5 12 5 17 0 24 -2 18 -5z m-3
-22 c0 -8 -39 -22 -55 -21 -3 0 -13 -6 -21 -15 -18 -17 -44 -20 -44 -5 0 11
35 27 85 40 17 4 31 8 33 9 1 1 2 -3 2 -8z m-347 -70 c16 -1 26 -5 22 -11 -3
-5 -12 -7 -20 -3 -8 3 -15 0 -15 -6 0 -6 -7 -11 -15 -11 -9 0 -12 -6 -8 -17 6
-15 -1 -15 -68 -7 -41 5 -106 9 -146 9 -39 0 -70 1 -69 2 1 2 25 8 52 14 27 6
76 16 109 23 33 7 76 12 95 10 19 -1 48 -3 63 -3z m182 -1 c-3 -5 -11 -10 -16
-10 -6 0 -7 5 -4 10 3 6 11 10 16 10 6 0 7 -4 4 -10z m-1668 -42 c-3 -8 -6 -5
-6 6 -1 11 2 17 5 13 3 -3 4 -12 1 -19z m2337 -334 c-11 -34 -55 -67 -76 -59
-9 4 -18 15 -21 26 -4 16 5 27 41 50 52 33 72 27 56 -17z m-1711 -231 c-7 -2
-21 -2 -30 0 -10 3 -4 5 12 5 17 0 24 -2 18 -5z m1669 -185 c-20 -40 -39 -75
-42 -78 -3 -3 -12 -18 -18 -35 -17 -41 -52 -86 -48 -62 1 9 8 23 14 29 15 15
16 48 1 48 -5 0 -7 5 -4 10 4 6 10 8 14 5 12 -7 44 32 36 44 -3 6 1 14 9 17 9
3 16 14 16 24 0 19 36 70 50 70 5 0 -8 -33 -28 -72z m-122 -148 c0 -5 -5 -10
-11 -10 -5 0 -7 5 -4 10 3 6 8 10 11 10 2 0 4 -4 4 -10z"/>
<path d="M3005 7536 c-22 -8 -75 -30 -117 -50 -76 -35 -78 -36 -78 -72 0 -58
25 -99 80 -127 42 -22 54 -24 87 -15 53 13 123 26 123 21 0 -2 9 1 19 7 11 5
25 26 31 45 l12 35 30 -21 30 -22 -29 -24 c-21 -18 -23 -23 -8 -18 11 4 38 9
60 12 22 3 46 10 53 16 30 24 -25 92 -84 103 -19 3 -34 10 -34 14 0 9 70 30
99 30 25 0 28 22 6 44 -36 36 -198 48 -280 22z m95 -176 c0 -5 -5 -12 -11 -16
-14 -8 -33 11 -25 25 7 11 36 4 36 -9z m-92 -48 c2 -7 -7 -12 -23 -12 -24 0
-26 2 -15 15 14 17 31 16 38 -3z"/>
<path d="M2280 7443 c-127 -21 -216 -82 -239 -165 -11 -40 -11 -50 4 -82 22
-45 43 -51 143 -39 71 9 75 10 50 21 -31 13 -34 22 -16 40 9 9 17 7 35 -9 21
-21 29 -21 177 -17 105 3 157 1 159 -6 2 -6 12 3 23 19 10 17 21 32 24 35 13
11 52 130 47 143 -3 7 -36 25 -74 40 -62 24 -80 27 -188 26 -66 -1 -131 -4
-145 -6z m10 -122 c0 -8 -9 -13 -101 -45 -25 -9 -58 -30 -74 -46 -16 -17 -32
-30 -37 -30 -4 0 -8 20 -8 43 0 45 10 56 75 78 30 10 145 10 145 0z m182 -103
c-19 -7 -82 -10 -82 -4 0 3 4 16 10 31 l10 26 40 -23 c32 -19 36 -24 22 -30z
m-130 30 c-9 -9 -15 -9 -24 0 -9 9 -7 12 12 12 19 0 21 -3 12 -12z"/>
<path d="M3446 7398 c-8 -13 -17 -34 -20 -48 -6 -26 6 -89 16 -80 3 3 12 -1
20 -7 23 -20 28 -6 28 79 0 62 -3 78 -15 78 -8 0 -21 -10 -29 -22z"/>
<path d="M4595 7280 c-3 -5 -2 -10 4 -10 5 0 13 5 16 10 3 6 2 10 -4 10 -5 0
-13 -4 -16 -10z"/>
<path d="M4684 7239 c-20 -13 -24 -19 -12 -19 9 0 23 6 30 13 7 8 19 12 26 9
16 -5 15 5 -2 11 -7 3 -26 -3 -42 -14z"/>
<path d="M4200 7036 c0 -2 7 -7 16 -10 8 -3 12 -2 9 4 -6 10 -25 14 -25 6z"/>
<path d="M3875 7010 c3 -5 11 -10 16 -10 6 0 7 5 4 10 -3 6 -11 10 -16 10 -6
0 -7 -4 -4 -10z"/>
<path d="M3555 6900 c-3 -5 1 -10 9 -10 8 0 18 5 21 10 3 6 -1 10 -9 10 -8 0
-18 -4 -21 -10z"/>
<path d="M2920 6834 c-41 -22 -54 -24 -153 -22 -108 3 -109 3 -133 -25 -29
-34 -31 -63 -4 -77 11 -6 20 -14 20 -18 0 -16 -101 -112 -138 -131 -60 -31
-76 -70 -50 -126 12 -27 39 -33 57 -11 21 25 155 64 281 81 201 28 237 28 317
7 85 -23 93 -18 93 50 0 56 -28 94 -62 84 -21 -5 -111 34 -123 54 -3 5 -15 10
-25 10 -17 0 -19 -5 -13 -32 3 -18 13 -44 22 -57 l15 -24 -58 7 c-50 5 -63 3
-93 -15 -29 -18 -39 -20 -54 -11 -10 7 -33 12 -51 12 -34 0 -49 -6 -130 -54
-27 -15 -48 -23 -48 -18 0 6 20 31 45 56 39 40 48 44 68 37 20 -8 27 -6 37 15
14 26 25 30 35 14 8 -13 46 -13 118 2 64 13 62 11 41 86 -5 18 -2 22 18 22 52
0 90 78 49 100 -26 13 -29 13 -81 -16z m156 -210 c-3 -9 -6 -22 -6 -30 0 -19
-26 -18 -34 1 -5 15 18 45 36 45 5 0 7 -7 4 -16z"/>
<path d="M3670 6830 c-13 -9 -13 -10 0 -9 8 0 24 4 35 9 l20 9 -20 0 c-11 0
-27 -4 -35 -9z"/>
<path d="M2885 6420 c-44 -3 -93 -11 -108 -18 -16 -7 -38 -12 -51 -12 -32 0
-65 -39 -68 -80 l-3 -35 115 1 c168 1 245 27 264 91 8 26 -24 64 -51 61 -10
-1 -54 -4 -98 -8z"/>
<path d="M2491 6284 c0 -11 3 -14 6 -6 3 7 2 16 -1 19 -3 4 -6 -2 -5 -13z"/>
<path d="M2460 6186 c0 -2 7 -7 16 -10 8 -3 12 -2 9 4 -6 10 -25 14 -25 6z"/>
<path d="M5570 7870 c8 -5 20 -10 25 -10 6 0 3 5 -5 10 -8 5 -19 10 -25 10 -5
0 -3 -5 5 -10z"/>
<path d="M6010 6470 c0 -5 5 -10 11 -10 5 0 7 5 4 10 -3 6 -8 10 -11 10 -2 0
-4 -4 -4 -10z"/>
<path d="M3436 6305 c4 -8 11 -15 16 -15 6 0 5 6 -2 15 -7 8 -14 15 -16 15 -2
0 -1 -7 2 -15z"/>
<path d="M3564 6295 c-4 -8 0 -23 7 -32 15 -18 70 -43 94 -43 27 0 16 38 -18
64 -38 29 -75 34 -83 11z"/>
<path d="M3456 6227 c-20 -14 -13 -42 12 -52 18 -7 52 27 52 51 0 18 -40 18
-64 1z"/>
<path d="M3377 6176 c-15 -22 -8 -46 15 -46 13 0 28 38 22 54 -9 22 -19 20
-37 -8z"/>
<path d="M3762 6157 c-30 -32 -26 -57 13 -90 29 -24 36 -26 59 -16 14 7 26 16
26 21 0 24 -54 108 -70 108 -3 0 -16 -10 -28 -23z"/>
<path d="M3573 6064 c-37 -39 -41 -62 -15 -94 16 -20 21 -21 65 -10 26 7 47
16 47 20 0 5 23 -1 50 -13 28 -11 50 -24 50 -28 0 -4 -14 -12 -30 -19 -39 -16
-94 -93 -85 -119 8 -27 65 -104 72 -97 3 3 -6 19 -21 36 -28 34 -33 50 -15 50
6 0 34 16 63 35 29 19 60 35 68 35 18 0 96 -81 82 -86 -6 -3 -35 -20 -64 -39
-30 -19 -62 -38 -72 -41 -18 -5 -25 -34 -9 -34 19 0 196 126 199 141 3 19 -90
125 -118 134 -10 3 -34 27 -53 53 -41 57 -102 101 -148 107 -29 4 -39 -1 -66
-31z"/>
<path d="M3460 6008 c0 -16 56 -114 69 -122 12 -8 -15 82 -34 111 -17 25 -35
31 -35 11z"/>
<path d="M3540 5866 c0 -18 55 -154 67 -166 26 -26 5 80 -25 123 -24 36 -42
54 -42 43z"/>
<path d="M3950 5724 c0 -9 23 -52 50 -95 28 -43 50 -83 50 -88 0 -6 5 -11 11
-11 6 0 9 6 6 14 -3 8 -11 32 -17 53 -24 87 -100 183 -100 127z"/>
<path d="M3490 5660 c-40 -37 -42 -42 -37 -80 3 -23 12 -49 21 -59 9 -10 16
-35 16 -59 0 -47 11 -52 59 -28 56 29 58 42 12 91 -22 24 -41 49 -41 54 0 5
11 16 24 24 31 21 38 52 16 77 -9 11 -19 20 -22 20 -3 0 -24 -18 -48 -40z m10
-88 c0 -7 -4 -10 -10 -7 -5 3 -10 16 -10 28 0 18 2 19 10 7 5 -8 10 -21 10
-28z"/>
<path d="M3816 5654 c-23 -23 -20 -40 15 -76 l31 -33 -20 37 -21 37 24 -9 c14
-5 41 -28 61 -50 41 -46 69 -64 84 -55 15 9 -6 43 -68 108 -58 59 -80 68 -106
41z"/>
<path d="M3745 5475 c7 -34 55 -99 76 -102 8 -2 20 1 28 6 11 7 9 13 -8 30
-11 11 -21 27 -21 35 0 21 -24 38 -37 25 -8 -8 -16 -4 -28 13 l-17 23 7 -30z"/>
<path d="M3706 5355 c8 -37 14 -45 14 -19 0 10 -5 26 -10 34 -8 11 -9 7 -4
-15z"/>
<path d="M3859 5327 c-53 -29 -104 -57 -115 -64 -24 -14 -12 -28 13 -15 40 21
60 -23 26 -60 -25 -28 -11 -31 43 -8 50 21 174 100 174 111 0 8 -34 7 -40 -1
-3 -4 -24 -19 -48 -34 -47 -30 -82 -28 -82 5 0 22 20 25 39 7 9 -8 12 -9 7 -1
-11 20 5 41 49 68 24 14 47 30 50 35 12 20 -22 7 -116 -43z"/>
<path d="M3621 5343 c-1 -7 -8 -10 -16 -7 -8 4 -15 2 -15 -3 0 -14 77 -103 84
-96 3 3 1 12 -5 20 -6 7 -8 13 -3 13 5 0 4 4 -1 8 -6 4 -18 23 -27 42 -9 19
-17 30 -17 23z"/>
<path d="M5605 6320 c-3 -5 -2 -10 4 -10 5 0 13 5 16 10 3 6 2 10 -4 10 -5 0
-13 -4 -16 -10z"/>
<path d="M4420 5788 c0 -17 36 -66 43 -58 2 3 -7 20 -20 39 -13 19 -23 27 -23
19z"/>
<path d="M5864 4204 c4 -9 1 -23 -5 -30 -9 -11 -7 -14 7 -15 32 -2 38 -4 72
-18 17 -7 32 -17 32 -22 0 -5 6 -9 13 -9 7 0 23 -9 35 -20 23 -22 47 -26 57
-10 4 6 11 8 16 5 16 -10 10 16 -10 44 -11 15 -43 37 -73 50 -29 13 -61 27
-70 32 -10 5 -32 9 -49 9 -25 0 -30 -3 -25 -16z"/>
<path d="M1975 8642 c-5 -4 -17 -16 -25 -27 -11 -16 -11 -17 0 -7 8 6 24 12
36 12 29 0 54 10 54 21 0 11 -51 12 -65 1z"/>
<path d="M1820 8479 c0 -5 5 -7 10 -4 6 3 10 8 10 11 0 2 -4 4 -10 4 -5 0 -10
-5 -10 -11z"/>
<path d="M5018 8283 c7 -3 16 -2 19 1 4 3 -2 6 -13 5 -11 0 -14 -3 -6 -6z"/>
<path d="M5160 8281 c32 -4 -3 -9 -125 -14 -155 -8 -292 -21 -255 -26 9 -2 6
-6 -9 -12 -17 -7 -28 -6 -40 5 -9 7 -41 17 -71 21 -69 9 -62 -1 11 -14 52 -10
51 -10 -16 -4 -38 3 -83 6 -100 5 -16 -1 -48 -2 -70 -3 -35 0 -37 -2 -17 -10
13 -5 20 -13 17 -19 -8 -14 18 -13 32 1 8 8 17 8 31 0 11 -6 25 -11 31 -11 21
0 11 16 -16 28 l-28 12 30 -6 c17 -3 57 -7 90 -10 77 -7 84 -14 13 -14 -31 0
-69 -7 -84 -15 l-29 -15 34 0 c24 0 32 -3 25 -10 -7 -7 -21 -7 -43 1 -17 6
-34 9 -37 6 -3 -3 4 -8 15 -12 27 -8 28 -35 1 -28 -11 3 -17 9 -14 14 9 16
-41 16 -96 0 -31 -10 -29 -10 25 -7 33 2 50 2 37 -1 -18 -4 -21 -8 -12 -18 16
-20 -16 -27 -97 -22 -38 2 -51 2 -30 0 20 -2 36 -7 33 -11 -7 -11 146 -6 179
6 29 10 28 10 -17 11 -27 1 -48 5 -48 10 0 5 21 9 48 9 26 -1 88 1 137 4 82 6
85 5 33 -4 -32 -6 -58 -15 -58 -20 0 -6 8 -7 18 -3 9 3 36 10 60 15 46 8 65
20 44 27 -6 3 -10 9 -6 14 3 5 1 9 -5 9 -5 0 -13 -4 -16 -10 -3 -5 -20 -10
-36 -10 -18 0 -28 4 -24 10 3 6 1 10 -5 10 -7 0 -10 -7 -6 -15 4 -10 -1 -15
-14 -15 -13 0 -17 5 -14 15 8 19 47 31 52 16 2 -6 11 -11 19 -11 13 0 13 2 2
17 -12 15 -12 16 4 10 10 -4 27 -7 36 -7 10 0 23 -11 29 -25 6 -14 19 -25 28
-25 13 0 14 3 4 15 -10 13 -9 15 9 15 12 0 19 5 16 10 -3 6 0 10 7 10 10 0 10
2 -1 9 -11 7 -11 9 0 14 8 3 -6 5 -31 6 -34 0 -40 -3 -25 -9 l20 -9 -20 0
c-11 0 -26 3 -34 8 -11 7 -5 11 21 16 46 9 84 3 81 -13 -2 -8 11 -12 37 -12
24 0 39 -4 38 -11 -2 -6 4 -14 12 -16 12 -4 12 -3 2 5 -10 6 2 11 40 14 29 3
55 2 58 -3 3 -5 19 -4 35 0 30 9 30 9 4 10 -43 2 -93 22 -77 32 7 5 22 8 33 8
16 -1 16 -2 -5 -9 -21 -7 -22 -8 -5 -9 11 0 38 2 60 6 l40 7 -35 7 c-22 4 -7
6 42 5 43 0 78 -5 78 -9 0 -13 43 3 65 24 17 17 18 19 2 19 -9 0 -16 -5 -14
-12 1 -6 -6 -14 -15 -16 -10 -2 -18 1 -18 7 0 6 6 12 13 12 21 2 -66 20 -113
24 l-45 3 45 -7z m66 -23 c5 -8 2 -9 -9 -5 -10 3 -17 2 -17 -3 0 -5 -8 -6 -17
-3 -15 6 -15 7 3 14 27 11 32 10 40 -3z m-246 -7 c0 -5 8 -11 18 -14 9 -2 0
-4 -20 -3 -20 1 -41 6 -45 10 -4 5 0 6 10 3 9 -4 17 -2 17 3 0 6 5 10 10 10 6
0 10 -4 10 -9z m72 -3 c-5 -5 -19 -5 -33 1 -22 8 -22 9 9 9 19 -1 29 -5 24
-10z m-189 -15 c-13 -2 -33 -2 -45 0 -13 2 -3 4 22 4 25 0 35 -2 23 -4z m87
-23 c0 -5 -4 -10 -9 -10 -6 0 -13 5 -16 10 -3 6 1 10 9 10 9 0 16 -4 16 -10z
m60 1 c0 -5 8 -12 18 -14 9 -3 -3 -5 -28 -5 -25 0 -37 2 -27 5 9 2 17 9 17 14
0 5 5 9 10 9 6 0 10 -4 10 -9z m-364 -26 c9 -8 11 -15 5 -15 -6 0 -10 -5 -8
-11 3 -14 -51 -31 -59 -18 -3 5 8 9 25 9 31 0 38 23 10 41 -11 7 -11 9 -1 9 7
0 20 -7 28 -15z m41 9 c-3 -3 -12 -4 -19 -1 -8 3 -5 6 6 6 11 1 17 -2 13 -5z
m-170 -100 c-3 -3 -12 -4 -19 -1 -8 3 -5 6 6 6 11 1 17 -2 13 -5z"/>
<path d="M4800 8270 c9 -4 31 -5 50 0 34 8 33 8 -15 9 -34 0 -45 -3 -35 -9z"/>
<path d="M4708 8263 c6 -2 18 -2 25 0 6 3 1 5 -13 5 -14 0 -19 -2 -12 -5z"/>
<path d="M4355 8220 c-28 -7 -28 -8 -5 -9 14 0 32 4 40 9 17 11 8 11 -35 0z"/>
<path d="M4415 8210 c-11 -5 -40 -9 -65 -10 l-45 -1 35 -12 c19 -7 38 -9 41
-5 3 5 16 4 30 -1 23 -8 23 -9 -11 -15 -78 -13 -82 -15 -25 -11 33 2 61 9 63
15 2 5 12 10 23 10 10 0 19 5 19 10 0 6 -17 8 -42 5 l-43 -5 45 14 c31 10 37
14 20 14 -14 0 -34 -3 -45 -8z"/>
<path d="M5158 8213 c-10 -2 -18 -9 -18 -14 0 -12 23 -12 36 0 5 5 20 11 34
14 22 4 21 4 -5 4 -16 1 -38 -1 -47 -4z"/>
<path d="M4206 8199 c-22 -5 -42 -12 -45 -15 -8 -8 71 7 89 17 18 10 7 10 -44
-2z"/>
<path d="M4506 8191 c-15 -6 -16 -10 -7 -16 7 -4 16 -3 20 3 3 5 15 12 26 15
l20 5 -20 0 c-11 0 -29 -3 -39 -7z"/>
<path d="M4045 8171 c-39 -7 -38 -7 25 -14 61 -7 175 4 189 19 3 3 -7 4 -24 1
-54 -11 -163 -17 -130 -8 27 8 27 9 5 8 -14 0 -43 -3 -65 -6z"/>
<path d="M4318 8173 c7 -3 16 -2 19 1 4 3 -2 6 -13 5 -11 0 -14 -3 -6 -6z"/>
<path d="M4886 8171 c-4 -5 3 -7 14 -4 23 6 26 13 6 13 -8 0 -17 -4 -20 -9z"/>
<path d="M3915 8148 c-27 -5 -61 -9 -75 -9 -20 -1 -22 -2 -7 -10 11 -7 24 -6
37 1 11 6 42 9 68 7 38 -3 43 -5 25 -11 -28 -10 -30 -26 -3 -26 11 0 20 5 20
10 0 6 12 10 28 11 26 0 26 1 5 9 -13 5 -23 11 -23 14 0 2 10 2 23 0 20 -4 21
-4 2 5 -24 11 -34 11 -100 -1z"/>
<path d="M4918 8153 c6 -2 18 -2 25 0 6 3 1 5 -13 5 -14 0 -19 -2 -12 -5z"/>
<path d="M4065 8141 c19 -9 18 -10 -5 -11 l-25 -2 25 -8 c14 -4 39 -8 55 -8
26 -1 27 1 10 8 -13 6 3 8 48 5 38 -2 67 0 67 6 0 5 -33 9 -72 9 -40 0 -84 3
-98 5 -22 5 -22 4 -5 -4z"/>
<path d="M3907 8110 c-3 -13 0 -20 9 -20 15 0 19 26 5 34 -5 3 -11 -3 -14 -14z"/>
<path d="M4405 8120 c3 -5 23 -10 43 -9 33 1 34 2 12 9 -36 12 -62 12 -55 0z"/>
<path d="M4618 8113 c7 -3 16 -2 19 1 4 3 -2 6 -13 5 -11 0 -14 -3 -6 -6z"/>
<path d="M3990 8099 c0 -5 -11 -9 -25 -9 -22 0 -25 -4 -25 -33 0 -25 7 -37 28
-50 27 -17 27 -17 5 -23 -13 -4 -23 -10 -23 -15 0 -14 7 -11 50 17 30 20 46
24 69 19 24 -5 296 38 309 50 1 1 -36 3 -83 4 -51 1 -85 -3 -85 -9 0 -12 -47
-13 -54 -1 -4 5 3 7 14 4 11 -3 20 0 20 6 0 6 -17 11 -40 11 -22 0 -40 4 -40
8 0 5 17 7 38 6 25 -2 32 0 22 6 -21 12 -180 20 -180 9z m84 -10 c14 -7 23
-16 20 -20 -3 -5 2 -9 10 -9 9 0 16 -5 16 -11 0 -7 -10 -9 -25 -5 -18 5 -27 2
-31 -9 -4 -8 -14 -15 -23 -15 -9 0 -22 -5 -27 -10 -6 -6 -19 -8 -28 -4 -14 5
-15 9 -4 15 7 5 23 9 36 9 12 0 22 5 22 11 0 7 -10 9 -26 5 -17 -5 -23 -3 -19
4 3 5 24 10 46 10 35 0 38 2 27 14 -8 8 -23 16 -34 19 -15 4 -16 5 -2 6 9 0
28 -4 42 -10z m-31 -16 c-7 -2 -19 -2 -25 0 -7 3 -2 5 12 5 14 0 19 -2 13 -5z
m220 -30 c-7 -2 -19 -2 -25 0 -7 3 -2 5 12 5 14 0 19 -2 13 -5z m-118 -23
c-16 -4 -39 -8 -50 -8 l-20 -1 20 9 c11 5 34 8 50 8 l30 0 -30 -8z"/>
<path d="M4618 8093 c7 -3 16 -2 19 1 4 3 -2 6 -13 5 -11 0 -14 -3 -6 -6z"/>
<path d="M4220 8080 c-21 -7 -21 -8 -5 -9 11 0 27 4 35 9 18 11 5 11 -30 0z"/>
<path d="M4305 8081 l-40 -7 31 -5 c19 -3 39 0 50 8 10 7 14 12 8 12 -5 -1
-27 -5 -49 -8z"/>
<path d="M4415 8070 c-18 -8 -17 -9 7 -9 15 -1 30 4 33 9 7 12 -12 12 -40 0z"/>
<path d="M3870 8060 c-11 -7 -4 -10 25 -10 29 0 36 3 25 10 -8 5 -19 10 -25
10 -5 0 -17 -5 -25 -10z"/>
<path d="M4030 7990 c-13 -8 -13 -10 2 -10 9 0 20 5 23 10 8 13 -5 13 -25 0z"/>
<path d="M5025 7990 c62 -4 83 -7 55 -9 l-45 -4 45 -7 c25 -4 60 -15 78 -25
26 -13 36 -15 45 -6 9 9 8 11 -5 6 -11 -4 -18 -2 -18 4 0 6 7 11 16 11 8 0 12
5 9 10 -3 6 -15 10 -26 10 -11 0 -17 -4 -14 -10 3 -5 -1 -10 -9 -10 -8 0 -18
5 -21 10 -3 6 -1 10 5 10 6 0 8 5 5 10 -4 6 -50 9 -113 8 l-107 -2 100 -6z"/>
<path d="M5240 7950 l25 -8 -24 -1 c-13 -1 -22 -4 -19 -7 3 -3 23 -2 44 2 36
7 37 8 14 15 -14 4 -34 7 -45 7 -16 0 -15 -2 5 -8z"/>
<path d="M4268 7873 c7 -3 16 -2 19 1 4 3 -2 6 -13 5 -11 0 -14 -3 -6 -6z"/>
<path d="M4195 7853 c-35 -5 -60 -24 -29 -22 10 0 42 7 69 14 37 9 42 13 20
12 -16 0 -43 -2 -60 -4z"/>
<path d="M3490 7825 c-16 -19 -3 -19 30 0 24 13 24 14 4 15 -12 0 -27 -7 -34
-15z"/>
<path d="M3790 7760 c-12 -8 -9 -10 13 -10 15 0 27 5 27 10 0 13 -20 13 -40 0z"/>
<path d="M3678 7723 c6 -2 18 -2 25 0 6 3 1 5 -13 5 -14 0 -19 -2 -12 -5z"/>
<path d="M3480 7660 c-9 -6 -10 -10 -3 -10 6 0 15 5 18 10 8 12 4 12 -15 0z"/>
<path d="M1791 5454 c0 -11 3 -14 6 -6 3 7 2 16 -1 19 -3 4 -6 -2 -5 -13z"/>
<path d="M1835 5310 c-3 -5 -1 -10 4 -10 6 0 11 5 11 10 0 6 -2 10 -4 10 -3 0
-8 -4 -11 -10z"/>
<path d="M2130 5270 c0 -5 5 -10 11 -10 5 0 7 5 4 10 -3 6 -8 10 -11 10 -2 0
-4 -4 -4 -10z"/>
<path d="M1626 5155 c4 -16 19 -60 35 -97 16 -36 29 -71 29 -77 0 -5 5 -13 11
-17 16 -10 1 51 -26 106 -12 25 -29 61 -38 80 -16 34 -16 34 -11 5z"/>
<path d="M2340 5070 c-18 -33 16 -130 45 -130 19 0 19 39 0 60 -18 20 -24 54
-10 58 6 2 20 -22 32 -54 17 -44 20 -61 11 -71 -8 -10 -8 -23 1 -52 6 -21 11
-54 11 -74 0 -42 8 -67 22 -67 7 0 8 42 4 118 -7 118 -18 179 -39 213 -16 26
-63 25 -77 -1z"/>
<path d="M1301 4983 c33 -56 92 -143 96 -143 6 0 -30 60 -75 128 -41 60 -54
70 -21 15z"/>
<path d="M1740 5001 c11 -22 29 -35 36 -28 7 6 -27 47 -39 47 -4 0 -3 -9 3
-19z"/>
<path d="M1470 4970 c0 -22 42 -87 47 -73 2 7 -7 29 -21 50 -14 21 -26 31 -26
23z"/>
<path d="M1236 4897 c3 -9 10 -17 15 -17 5 0 9 -5 9 -10 0 -6 12 -23 26 -38
l26 -27 -18 33 c-23 40 -69 87 -58 59z"/>
<path d="M1159 4863 c-12 -16 -12 -17 1 -7 8 6 22 14 30 17 13 5 12 6 -1 6 -9
1 -23 -7 -30 -16z"/>
<path d="M3288 4770 c-32 -25 -64 -92 -73 -154 -11 -69 14 -57 41 20 50 143
76 140 63 -6 -6 -71 -4 -79 13 -62 15 15 22 160 9 195 -13 32 -20 33 -53 7z"/>
<path d="M1145 4710 c-10 -11 -15 -20 -11 -20 4 0 16 9 28 20 12 11 17 20 11
20 -5 0 -18 -9 -28 -20z"/>
<path d="M2138 4619 c-29 -29 -30 -33 -24 -87 23 -195 29 -281 28 -390 -2
-128 -13 -172 -37 -152 -9 8 -14 58 -18 188 -5 184 -11 222 -32 222 -20 0 -23
-33 -30 -280 l-7 -225 26 -24 c27 -25 37 -24 131 7 41 14 122 34 169 41 59 9
63 24 39 133 -43 186 -47 232 -36 413 5 94 6 174 2 179 -13 15 -69 -14 -73
-38 -3 -11 -7 -52 -10 -90 -9 -113 -29 -101 -41 23 -11 119 -31 137 -87 80z"/>
<path d="M2488 4617 c6 -7 17 -50 25 -97 25 -143 97 -320 97 -238 0 51 -71
323 -87 336 -23 16 -49 16 -35 -1z"/>
<path d="M3379 4538 c-32 -26 -40 -28 -59 -18 -16 9 -25 9 -33 1 -18 -18 -52
-12 -77 14 -72 77 -162 -38 -122 -157 14 -42 14 -42 -14 -64 -29 -24 -72 -39
-82 -30 -3 3 0 17 6 31 27 59 2 170 -36 163 -21 -4 -72 -102 -72 -137 0 -14 7
-35 15 -45 8 -11 15 -23 15 -28 0 -11 -40 -47 -82 -74 -38 -25 -51 -54 -23
-54 8 0 46 20 83 44 37 25 85 49 108 55 57 15 103 49 137 99 33 49 132 117
194 133 48 13 86 48 81 77 -3 18 -6 17 -39 -10z m-207 -53 c-8 -77 -54 -110
-60 -43 -4 49 13 80 41 76 18 -2 21 -9 19 -33z m-204 -107 c2 -32 -2 -49 -13
-58 -14 -12 -18 -11 -26 1 -13 20 -11 83 3 97 21 21 33 7 36 -40z"/>
<path d="M2429 4533 c-14 -38 -1 -365 15 -360 17 6 25 69 25 197 1 172 -14
231 -40 163z"/>
<path d="M2820 4260 c-6 -12 -9 -24 -7 -27 3 -2 11 5 17 17 6 12 9 24 7 27 -3
2 -11 -5 -17 -17z"/>
<path d="M2836 3693 c4 -32 8 -60 10 -62 1 -1 8 16 14 38 12 47 6 81 -16 81
-11 0 -13 -11 -8 -57z"/>
<path d="M2698 3559 c-8 -48 15 -89 44 -82 66 14 88 25 88 43 0 26 -14 32 -36
15 -10 -8 -31 -15 -46 -15 -22 0 -28 5 -28 23 0 40 -17 52 -22 16z"/>
<path d="M6014 3434 c-94 -13 -170 -32 -133 -33 84 -4 197 -80 220 -149 13
-41 7 -173 -16 -317 -8 -49 -17 -130 -21 -179 l-7 -89 22 15 c27 19 66 71 89
118 22 44 25 281 5 288 -7 2 -13 10 -13 17 0 7 -4 15 -10 17 -6 2 -1 30 10 70
19 61 19 70 6 110 -15 43 -16 114 -2 136 9 15 -17 14 -150 -4z"/>
<path d="M5003 2908 c-17 -24 -52 -70 -77 -103 -43 -55 -126 -186 -126 -199 0
-3 16 1 36 8 29 9 43 24 67 67 16 30 35 61 42 69 28 34 104 200 91 200 -1 0
-16 -19 -33 -42z"/>
<path d="M4569 2693 c-20 -27 -56 -77 -80 -113 -24 -36 -48 -68 -54 -72 -6 -5
-6 -8 -1 -8 6 0 1 -7 -10 -15 -12 -9 -14 -14 -6 -15 19 0 112 41 110 49 -1 3
17 45 39 92 47 100 58 129 46 129 -5 0 -25 -21 -44 -47z"/>
<path d="M3225 2589 c-43 -44 -89 -69 -129 -69 -24 0 -55 -35 -42 -47 3 -3 33
4 68 16 47 16 76 34 115 73 29 29 53 56 53 60 0 19 -29 5 -65 -33z"/>
<path d="M5291 2594 c-117 -32 -119 -33 -101 -44 8 -6 10 -10 4 -10 -15 0 -24
-58 -10 -64 6 -2 4 -5 -5 -5 -9 -1 -24 -12 -33 -26 -9 -14 -21 -25 -26 -25 -5
0 -31 -13 -57 -28 -26 -15 -82 -43 -123 -61 -41 -19 -156 -73 -255 -121 -99
-49 -227 -110 -285 -137 -61 -29 -136 -75 -180 -109 -103 -82 -154 -115 -231
-151 -37 -17 -100 -53 -140 -81 -41 -27 -89 -57 -107 -66 -31 -16 -32 -16 -23
1 29 54 60 136 59 160 0 16 9 55 22 88 23 64 87 277 92 310 2 11 8 23 13 27 6
4 0 8 -13 8 -30 0 -34 -9 -112 -295 -21 -77 -48 -169 -59 -204 -12 -35 -21
-70 -21 -78 0 -8 -7 -21 -15 -29 -8 -9 -15 -21 -14 -27 0 -9 2 -8 6 1 2 6 9
12 14 12 6 0 7 -4 4 -10 -9 -14 -4 -13 88 17 45 14 90 35 100 45 10 10 24 18
31 18 8 0 16 7 20 15 8 22 25 18 19 -5 -7 -25 -8 -25 89 2 77 21 81 23 113 74
82 128 155 193 260 232 6 2 4 -1 -3 -6 -8 -5 -13 -11 -11 -13 1 -2 -3 -21 -10
-42 -14 -42 -110 -146 -151 -164 -15 -7 -19 -12 -10 -13 8 -1 -5 -8 -30 -16
-66 -20 -20 -12 225 40 398 84 392 82 417 127 24 43 30 46 47 25 12 -14 1 -29
-29 -38 -11 -3 -9 -6 5 -10 24 -6 399 85 419 102 17 13 33 81 48 200 5 47 20
126 33 175 31 121 42 225 24 224 -8 -1 -52 -12 -98 -25z m-331 -518 c0 -2 -7
-7 -16 -10 -8 -3 -12 -2 -9 4 6 10 25 14 25 6z m-15 -36 c3 -6 -1 -7 -10 -4
-11 5 -18 0 -22 -15 -3 -11 -10 -21 -16 -21 -6 0 -8 -3 -5 -6 4 -3 16 -1 27 5
17 9 20 9 15 -3 -7 -19 -35 -29 -47 -17 -6 6 -1 21 12 40 23 32 36 38 46 21z"/>
<path d="M2898 2593 c-38 -44 -50 -101 -25 -122 18 -14 27 -4 27 30 0 64 43
106 56 55 9 -37 -3 -63 -54 -113 -41 -42 -52 -47 -99 -51 -64 -5 -94 11 -122
67 -24 45 -60 71 -98 70 l-28 -1 27 -9 c16 -6 34 -26 47 -51 18 -38 19 -44 5
-77 -8 -20 -26 -46 -40 -58 -32 -30 -27 -29 30 3 38 21 56 25 89 21 23 -4 70
-1 105 5 52 8 71 17 101 47 21 20 46 57 56 83 17 46 17 48 -2 80 -22 38 -52
47 -75 21z"/>
<path d="M6045 2590 c-3 -6 -3 -87 1 -180 7 -167 7 -170 28 -164 44 12 192 67
219 81 26 13 27 16 27 92 0 88 -11 108 -56 97 -19 -5 -44 2 -90 24 -68 33 -90
37 -97 18 -3 -7 -6 -1 -6 15 -1 27 -14 36 -26 17z m46 -141 c-8 -30 -9 -26 -6
26 4 72 7 81 12 39 2 -18 0 -47 -6 -65z"/>
<path d="M5024 2532 c-14 -9 -47 -72 -38 -72 3 0 16 9 28 20 11 10 32 28 46
39 l25 20 -25 1 c-14 0 -30 -4 -36 -8z"/>
<path d="M4733 2469 c-21 -6 -39 -21 -49 -40 -9 -18 -47 -63 -85 -101 -38 -38
-69 -71 -69 -73 0 -12 108 64 159 110 53 50 102 116 84 114 -4 0 -23 -5 -40
-10z"/>
<path d="M4392 2380 c-19 -4 -38 -12 -43 -17 -9 -9 -110 -204 -122 -235 -7
-21 17 -14 44 13 23 23 107 133 144 189 16 25 34 48 40 52 13 10 -20 8 -63 -2z"/>
<path d="M3743 2333 c-6 -27 -18 -100 -27 -163 -19 -132 -44 -310 -57 -390
-14 -92 -17 -130 -9 -130 4 0 17 64 29 143 12 78 35 205 51 282 33 153 49 305
33 305 -5 0 -14 -21 -20 -47z"/>
<path d="M3887 2303 c-17 -33 -14 -40 11 -24 8 4 12 19 10 32 -3 23 -4 23 -21
-8z"/>
<path d="M3125 2281 c-80 -61 -80 -62 -50 -121 23 -45 48 -70 60 -58 2 2 -2
17 -10 32 -23 44 -18 63 30 115 73 78 55 97 -30 32z"/>
<path d="M3467 2234 c-20 -31 -39 -74 -42 -96 -13 -72 12 -63 54 20 58 115 48
173 -12 76z"/>
<path d="M3002 2199 c-34 -13 -140 -89 -145 -103 -5 -11 -246 -136 -264 -136
-4 0 -21 -11 -38 -24 -26 -22 -29 -27 -17 -45 6 -11 12 -33 12 -48 0 -16 9
-43 20 -61 11 -18 20 -48 20 -66 0 -18 6 -39 14 -45 21 -17 94 31 108 70 8 24
16 29 41 29 35 0 132 62 203 130 51 48 83 57 121 34 42 -26 84 -75 90 -105 7
-39 86 -124 156 -169 61 -40 83 -45 55 -13 -9 10 -37 50 -63 88 -100 146 -151
201 -215 233 -49 25 -66 29 -91 22 -26 -8 -31 -6 -38 13 -12 32 10 83 35 79
10 -2 21 -8 22 -13 5 -12 42 -12 42 1 0 17 -43 50 -67 50 -51 0 -88 -81 -63
-139 20 -49 10 -71 -39 -88 -25 -8 -69 -35 -99 -59 -42 -35 -62 -44 -92 -44
-41 0 -55 -11 -65 -53 l-8 -29 -18 29 c-21 31 -25 48 -9 38 6 -3 10 -1 10 5 0
6 -6 13 -14 16 -7 3 -19 23 -26 45 -11 34 -11 42 1 54 20 19 151 85 160 79 4
-2 10 -19 14 -37 18 -88 35 -92 35 -8 0 45 4 60 16 65 23 9 34 -2 34 -34 0
-16 4 -32 10 -35 15 -9 24 44 11 71 -6 14 -11 34 -11 44 0 18 55 68 156 143
38 28 37 33 -4 16z"/>
<path d="M3943 2034 c-3 -10 -11 -22 -17 -26 -7 -5 -5 -8 5 -8 9 0 19 10 22
22 8 28 0 37 -10 12z"/>
<path d="M3894 1954 c-8 -20 -12 -39 -9 -42 3 -3 8 4 12 16 3 12 9 22 13 22 4
0 10 9 13 20 9 34 -13 22 -29 -16z"/>
<path d="M2603 1853 c7 -43 22 -62 38 -46 7 7 6 21 -5 47 -20 48 -41 48 -33
-1z"/>
<path d="M5030 1564 c-8 -2 -96 -11 -195 -19 -293 -27 -653 -92 -1060 -193
l-199 -50 -9 -33 c-5 -19 -7 -86 -4 -149 5 -128 33 -243 73 -296 32 -43 198
-122 231 -110 54 21 407 94 633 131 85 14 171 29 191 34 41 9 83 -3 77 -21 -6
-16 -65 -57 -143 -97 -59 -30 -59 -31 -25 -30 19 0 52 -3 74 -7 28 -5 37 -3
32 5 -4 6 -15 12 -24 12 -9 1 -3 4 13 8 29 6 73 2 180 -20 81 -16 89 -16 118
-6 22 7 32 6 46 -7 17 -16 19 -15 36 11 10 15 26 33 34 40 14 10 16 45 17 243
1 127 4 234 8 237 3 4 6 19 6 34 0 15 7 58 16 96 9 37 19 96 23 131 l7 62 -70
-1 c-39 -1 -78 -3 -86 -5z m-133 -30 c-3 -3 -12 -4 -19 -1 -8 3 -5 6 6 6 11 1
17 -2 13 -5z m-224 -631 c-7 -2 -19 -2 -25 0 -7 3 -2 5 12 5 14 0 19 -2 13 -5z
m-410 -90 c-7 -2 -19 -2 -25 0 -7 3 -2 5 12 5 14 0 19 -2 13 -5z"/>
<path d="M3230 1210 c-8 -5 -10 -10 -5 -10 6 0 17 5 25 10 8 5 11 10 5 10 -5
0 -17 -5 -25 -10z"/>
<path d="M5988 1173 c-13 -29 -23 -363 -12 -363 4 0 22 10 42 22 l34 21 -7 56
c-4 31 -10 107 -14 170 -6 120 -20 149 -43 94z"/>
<path d="M5727 1133 c-15 -23 -18 -144 -7 -282 6 -85 13 -158 16 -163 3 -4 14
-3 25 3 19 9 20 17 15 72 -4 34 -9 125 -12 201 -4 91 -10 146 -19 159 -7 10
-15 15 -18 10z"/>
<path d="M6222 1105 c0 -16 2 -22 5 -12 2 9 2 23 0 30 -3 6 -5 -1 -5 -18z"/>
<path d="M5378 1083 c0 -5 -2 -100 -2 -213 -1 -113 -4 -214 -7 -225 -8 -26
-40 -34 -125 -27 -70 5 -71 4 -78 -21 -4 -19 2 -39 21 -71 15 -26 31 -46 35
-46 15 0 253 91 262 100 9 9 -11 13 -40 9 -19 -2 -20 32 -3 108 16 75 17 101
8 212 -11 135 -24 181 -51 181 -10 0 -19 -3 -20 -7z"/>
<path d="M3270 965 c0 -13 246 -145 270 -145 9 0 9 4 -1 17 -18 21 -269 141
-269 128z"/>
<path d="M5030 679 c0 -5 5 -7 10 -4 6 3 10 8 10 11 0 2 -4 4 -10 4 -5 0 -10
-5 -10 -11z"/>
<path d="M4208 571 c-54 -25 -55 -29 -17 -45 19 -9 48 -24 64 -36 38 -25 52
-25 60 0 8 25 -33 100 -54 99 -9 0 -33 -8 -53 -18z"/>
<path d="M4066 507 c-15 -11 -19 -37 -27 -158 -4 -79 -15 -171 -24 -203 -8
-32 -13 -61 -11 -63 6 -6 65 7 70 15 10 16 28 404 19 413 -6 6 -16 4 -27 -4z"/>
<path d="M4986 472 c-3 -5 -1 -22 3 -38 9 -30 16 -31 64 -12 l27 11 -25 23
c-26 24 -59 31 -69 16z"/>
<path d="M3431 258 c-34 -10 -61 -21 -59 -24 3 -2 42 -15 88 -29 83 -25 296
-112 358 -147 35 -19 69 -23 90 -9 14 9 -18 32 -85 62 -18 7 -33 17 -33 21 0
5 -8 8 -19 8 -10 0 -24 7 -31 15 -11 13 -10 15 6 9 16 -5 16 -4 4 5 -8 6 -20
11 -27 11 -6 0 -35 16 -65 35 -46 31 -80 44 -148 60 -8 1 -44 -6 -79 -17z"/>
</g>
</svg>
